<?xml version="1.0" encoding="utf-8"?>
<!-- Generator: Adobe Illustrator 24.0.0, SVG Export Plug-In . SVG Version: 6.00 Build 0)  -->
<svg version="1.1" id="Layer_2" xmlns="http://www.w3.org/2000/svg" xmlns:xlink="http://www.w3.org/1999/xlink" x="0px" y="0px"
	 viewBox="0 0 496.9 512" style="enable-background:new 0 0 496.9 512;" xml:space="preserve">
<style type="text/css">
	.st0{fill:#CD9794;}
</style>
<path class="st0" d="M496.9,118.3c0-0.2,0-0.4-0.1-0.7c-0.2-0.6-0.4-1.1-0.7-1.7c-0.1-0.2-0.3-0.3-0.4-0.5c-0.2-0.3-0.5-0.7-0.7-1
	c-0.2-0.2-0.4-0.3-0.6-0.4c-0.3-0.2-0.6-0.5-0.9-0.7h-0.1l0,0l-58.5-33.5c-2.2-1.2-4.8-1.2-7,0l-58.5,33.5l0,0h-0.1
	c-0.3,0.2-0.6,0.4-0.9,0.7c-0.2,0.1-0.4,0.3-0.5,0.4c-0.3,0.3-0.5,0.6-0.7,1c-0.1,0.2-0.3,0.3-0.4,0.5c-0.3,0.5-0.5,1.1-0.7,1.7
	c-0.1,0.2,0,0.4-0.1,0.6c-0.1,0.4-0.1,0.8-0.2,1.2v14.3l-52-32.6c0.1-0.4,0.1-0.7,0.1-1.1V41.5c0-0.4-0.1-0.8-0.2-1.1
	c0-0.2,0-0.4-0.1-0.7c-0.2-0.6-0.4-1.1-0.7-1.7c-0.1-0.2-0.3-0.4-0.5-0.6c-0.2-0.3-0.4-0.6-0.6-0.8s-0.4-0.4-0.7-0.5
	c-0.2-0.2-0.5-0.4-0.8-0.6l0,0v-0.1L252.1,1.9c-2.2-1.2-4.8-1.2-7,0l-58.5,33.5l0,0l0,0c-0.3,0.2-0.5,0.4-0.8,0.6
	c-0.2,0.2-0.5,0.3-0.7,0.5c-0.2,0.3-0.5,0.6-0.7,0.9c-0.2,0.2-0.3,0.4-0.4,0.6c-0.3,0.5-0.5,1.1-0.7,1.7c-0.1,0.2,0,0.4-0.1,0.6
	c-0.1,0.4-0.1,0.8-0.2,1.2V100c0,0.4,0.1,0.7,0.1,1.1l-52,32.6v-14.3c0-0.4-0.1-0.8-0.2-1.1c0-0.2,0-0.4-0.1-0.7
	c-0.2-0.6-0.4-1.1-0.7-1.7c-0.1-0.2-0.3-0.3-0.4-0.5c-0.2-0.3-0.5-0.7-0.7-1c-0.2-0.2-0.4-0.3-0.6-0.4c-0.3-0.2-0.6-0.5-0.9-0.7
	h-0.1l0,0L69.2,79.8c-2.2-1.2-4.8-1.2-7,0L3.7,113.3l0,0H3.6c-0.3,0.2-0.6,0.4-0.9,0.7c-0.2,0.1-0.4,0.3-0.5,0.4
	c-0.3,0.3-0.5,0.6-0.7,1c-0.1,0.2-0.3,0.3-0.4,0.5c-0.3,0.5-0.5,1.1-0.7,1.7c-0.1,0.2,0,0.4-0.1,0.6c-0.1,0.4-0.1,0.8-0.2,1.2v58.5
	c0,2.6,1.4,4.9,3.6,6.1l54.9,30v80.2l-55,31.5l0,0H3.5c-0.3,0.2-0.6,0.4-0.9,0.7c-0.2,0.1-0.4,0.3-0.5,0.4c-0.3,0.3-0.5,0.6-0.7,1
	c-0.1,0.2-0.3,0.3-0.4,0.5c-0.3,0.5-0.5,1.1-0.7,1.7c-0.1,0.2,0,0.4-0.1,0.6c-0.1,0.4-0.1,0.8-0.2,1.2v58.5c0,2.6,1.4,4.9,3.7,6.1
	l58.5,31.9c0.3,0.2,0.7,0.3,1,0.4c0.2,0.1,0.4,0.2,0.6,0.2c1.2,0.3,2.4,0.3,3.6,0c0.2-0.1,0.4-0.2,0.6-0.2c0.4-0.1,0.7-0.2,1-0.4
	l49.7-27.1l64.4,42.9v29c0,2.6,1.4,4.9,3.6,6.1l58.5,31.9c0.3,0.2,0.7,0.3,1,0.4c0.2,0.1,0.4,0.2,0.6,0.2c1.2,0.3,2.4,0.3,3.6,0
	c0.2-0.1,0.4-0.2,0.6-0.2c0.4-0.1,0.7-0.2,1-0.4l58.5-31.9c2.2-1.2,3.6-3.6,3.6-6.1v-29l64.4-42.9l49.7,27.1c0.3,0.2,0.7,0.3,1,0.4
	c0.2,0.1,0.4,0.2,0.6,0.2c1.2,0.3,2.4,0.3,3.6,0c0.2-0.1,0.4-0.2,0.6-0.2c0.4-0.1,0.7-0.2,1-0.4l58.5-31.9c2.2-1.2,3.6-3.6,3.6-6.1
	v-58.5c0-0.4-0.1-0.8-0.2-1.1c0-0.2,0-0.4-0.1-0.7c-0.2-0.6-0.4-1.1-0.7-1.7c-0.1-0.2-0.3-0.3-0.4-0.5c-0.2-0.3-0.5-0.7-0.7-1
	c-0.2-0.2-0.4-0.3-0.6-0.4c-0.3-0.2-0.6-0.5-0.9-0.7h-0.1l0,0l-55-31.5V214l54.9-29.9c2.2-1.2,3.6-3.6,3.6-6.1v-58.5
	C497,119,496.9,118.6,496.9,118.3z M291,415.4l-42.4,23.1l-42.4-23.1l-1.8-1l44.2-25.3l44.2,25.3L291,415.4z M117.2,173.7L72.7,198
	v-42.5l44.5-24.3V173.7z M65.7,306.3l44.2,25.3l-1.8,1l-42.4,23.1l-42.4-23.1l-1.8-1L65.7,306.3z M123.6,323.3l-50.9-29.2V214
	l46.4-25.3l64,41.7v51.1L123.6,323.3z M197.1,95.8V53.3l44.5,24.3v42.5L197.1,95.8z M300.1,95.8l-44.5,24.3V77.6l44.5-24.3V95.8z
	 M248.6,201.1l44.2,25.3l-1.8,1l-42.4,23.1l-42.4-23.1l-1.8-1L248.6,201.1z M197.1,238.3l44.5,24.3v42.6l-44.5-24.3V238.3z
	 M255.6,262.6l44.5-24.3v42.6l-44.5,24.3V262.6z M314.1,230.3l64-41.7l46.4,25.3v80.2l-50.9,29.2l-59.5-41.9V230.3z M424.5,155.5
	V198L380,173.7v-42.5L424.5,155.5z M380,386.1v-42.6l44.5,24.3v42.5L380,386.1z M473.9,332.5l-42.4,23.1l-42.4-23.1l-1.8-1
	l44.2-25.3l44.2,25.3L473.9,332.5z M431.5,94l44.2,25.3l-1.8,1l-42.4,23.1l-42.4-23.1l-1.8-1L431.5,94z M366.3,179.7l-59.4,38.7
	L255.6,189v-52.9l47-25.6l63.4,39.7v27.7C366,178.5,366.1,179.1,366.3,179.7z M248.6,16.1l44.2,25.3l-42.2,23l-1.9,1.1l-1.9-1.1
	l-42.2-23.1L248.6,16.1z M194.6,110.5l47,25.6V189l-51.3,29.4l-59.4-38.7c0.2-0.6,0.2-1.2,0.2-1.8v-27.7L194.6,110.5z M65.7,94
	l44.2,25.3l-1.8,1l-42.4,23.1l-42.4-23.1l-1.8-1L65.7,94z M14.2,131.2l44.5,24.3V198l-44.5-24.3C14.2,173.7,14.2,131.2,14.2,131.2z
	 M14.2,343.5l44.5,24.3v42.5L14.2,386C14.2,386,14.2,343.5,14.2,343.5z M72.7,367.8l44.5-24.3V386l-44.5,24.3V367.8z M130.8,392.4
	c0.3-0.7,0.4-1.4,0.4-2.2v-55.1l59.4-41.8l51,27.9V377l-55,31.5l0,0h-0.1c-0.3,0.2-0.6,0.4-0.9,0.7c-0.2,0.1-0.4,0.3-0.5,0.4
	c-0.3,0.3-0.5,0.6-0.7,1c-0.1,0.2-0.3,0.3-0.4,0.5c-0.3,0.5-0.5,1.1-0.7,1.7c-0.1,0.2,0,0.4-0.1,0.6c-0.1,0.4-0.1,0.8-0.2,1.2v12.7
	L130.8,392.4z M197.1,440.3v-13.9l44.5,24.3v42.5l-44.5-24.3V440.3z M255.6,493.2v-42.5l44.5-24.3V469L255.6,493.2z M314.1,414.6
	c0-0.4-0.1-0.8-0.2-1.1c0-0.2,0-0.4-0.1-0.7c-0.2-0.6-0.4-1.1-0.7-1.7c-0.1-0.2-0.3-0.3-0.4-0.5c-0.2-0.3-0.5-0.7-0.7-1
	c-0.2-0.2-0.4-0.3-0.6-0.4c-0.3-0.2-0.6-0.5-0.9-0.7h-0.1l0,0L255.6,377v-55.9l51-27.9L366,335v55.1c0,0.7,0.1,1.5,0.4,2.2
	l-52.3,34.8V414.6z M438.5,410.3v-42.5l44.5-24.3v42.6L438.5,410.3z M438.5,198v-42.5l44.5-24.3v42.5L438.5,198z"/>
</svg>
