<?xml version="1.0" encoding="utf-8"?>
<!-- Generator: Adobe Illustrator 24.0.0, SVG Export Plug-In . SVG Version: 6.00 Build 0)  -->
<svg version="1.1" id="Camada_1" xmlns="http://www.w3.org/2000/svg" xmlns:xlink="http://www.w3.org/1999/xlink" x="0px" y="0px"
	 viewBox="0 0 256 256" style="enable-background:new 0 0 256 256;" xml:space="preserve">
<style type="text/css">
	.st0{fill:#CD9794;}
	
		.st1{fill-rule:evenodd;clip-rule:evenodd;fill:#FFFFFF;stroke:#FFFFFF;stroke-width:6;stroke-linejoin:round;stroke-miterlimit:10;}
</style>
<circle id="Эллипс_8" class="st0" cx="128" cy="128" r="128"/>
<path id="Фигура_2" class="st1" d="M129,35.5l-41,56l-22,90l62,39l62-39l-20-90L129,35.5z M127,43.5l-35,49l9,30l26-44V43.5z
	 M131,43.5v35l26,44l9-30L131,43.5z M129,81.5l-27,45l17,52h19l18-52L129,81.5z M168,99.5l-8,26l24,44L168,99.5z M98,125.5l-8-27
	l-17,70L98,125.5z M100,128.5l-29,50h44L100,128.5z M142,178.5h43l-27-50L142,178.5z M75,182.5h41l10,32L75,182.5z M120,182.5l8,28
	l9-28H120z M141,182.5l-11,32l52-32H141z"/>
</svg>
