<?xml version="1.0" encoding="utf-8"?>
<!-- Generator: Adobe Illustrator 24.0.0, SVG Export Plug-In . SVG Version: 6.00 Build 0)  -->
<svg version="1.1" id="Camada_1" xmlns="http://www.w3.org/2000/svg" xmlns:xlink="http://www.w3.org/1999/xlink" x="0px" y="0px"
	 viewBox="0 0 2500 2500" style="enable-background:new 0 0 2500 2500;" xml:space="preserve">
<style type="text/css">
	.st0{fill:#CD9794;}
	.st1{fill:#FFFFFF;}
</style>
<path class="st0" d="M1250,0c690.3,0,1250,559.7,1250,1250s-559.7,1250-1250,1250S0,1940.5,0,1250S559.6,0,1250,0"/>
<path class="st1" d="M1404.3,1083.4V897.5h425.2V614.2H671.6v283.3h425.3v185.8c-345.6,15.9-605.5,84.3-605.5,166.3
	c0,82,260,150.5,605.5,166.4v595.6h307.5V1416c345-15.9,604.3-84.3,604.3-166.2C2008.7,1167.8,1749.4,1099.4,1404.3,1083.4
	 M1404.4,1365.6v-0.1c-8.7,0.5-53.2,3.2-152.5,3.2c-79.3,0-135.2-2.2-154.8-3.3v0.2c-305.3-13.5-533.3-66.7-533.3-130.3
	c0-63.6,227.9-116.7,533.3-130.3v207.6c20,1.4,77.2,4.8,156.1,4.8c94.8,0,142.5-3.9,151.3-4.8V1105
	c304.8,13.6,532.1,66.8,532.1,130.2c0,63.4-227.5,116.6-532.1,130.2"/>
</svg>
