<?xml version="1.0" encoding="utf-8"?>
<!-- Generator: Adobe Illustrator 24.0.0, SVG Export Plug-In . SVG Version: 6.00 Build 0)  -->
<svg version="1.1" id="Camada_1" xmlns="http://www.w3.org/2000/svg" xmlns:xlink="http://www.w3.org/1999/xlink" x="0px" y="0px"
	 viewBox="0 0 3640.5 3638.2" style="enable-background:new 0 0 3640.5 3638.2;" xml:space="preserve">
<style type="text/css">
	.st0{fill:#CD9794;}
</style>
<path class="st0" d="M1820.3-2.4C815-2.4,0,812.6,0,1817.9s815,1820.3,1820.3,1820.3s1820.3-815,1820.3-1820.3
	S2825.6-2.4,1820.3-2.4z M936.6,782.9l571.4,565.5c172.4,170.7,452,170.7,624.5,0l571.4-565.5h361.5l-752.2,744.4
	c-272.3,269.5-713.7,269.5-986,0L575.1,782.9H936.6z M2708.6,2852.9l-576.1-570.1c-172.4-170.7-452-170.7-624.5,0l-576,570.1H570.5
	l756.8-749c272.3-269.5,713.7-269.5,986,0l756.8,749H2708.6z"/>
</svg>
