<?xml version="1.0" encoding="utf-8"?>
<!-- Generator: Adobe Illustrator 24.0.0, SVG Export Plug-In . SVG Version: 6.00 Build 0)  -->
<svg version="1.1" id="Camada_1" xmlns="http://www.w3.org/2000/svg" xmlns:xlink="http://www.w3.org/1999/xlink" x="0px" y="0px"
	 viewBox="0 0 2500 2500" style="enable-background:new 0 0 2500 2500;" xml:space="preserve">
<style type="text/css">
	.st0{fill:#CD9794;}
</style>
<path class="st0" d="M1250,0C559.8,0,0,559.8,0,1250c-0.2,134.2,21.3,267.5,63.8,394.8h373.8V593l812.5,812.5L2062.5,593v1051.8
	h373.8c42.3-127.3,63.8-260.6,63.8-394.7C2500,559.8,1940.2,0,1250,0"/>
<path class="st0" d="M1063.2,1592.5l-354.8-354.8v661.8H181.8C401.2,2259.5,797.5,2500,1250,2500s848.8-240.5,1068-600.5h-526.8
	v-661.8l-354.5,354.8L1250,1779.2L1063.2,1592.5z"/>
</svg>
