<?xml version="1.0" encoding="utf-8"?>
<!-- Generator: Adobe Illustrator 24.0.0, SVG Export Plug-In . SVG Version: 6.00 Build 0)  -->
<svg version="1.1" id="svg2" xmlns="http://www.w3.org/2000/svg" xmlns:xlink="http://www.w3.org/1999/xlink" x="0px" y="0px"
	 viewBox="0 0 512 512" style="enable-background:new 0 0 512 512;" xml:space="preserve">
<style type="text/css">
	.st0{fill:#CD9793;}
</style>
<g>
	<path class="st0" d="M233.6,260l-15.4,61.8c19,4.7,77.8,23.6,86.4-11.3C313.7,274.1,252.6,264.7,233.6,260z"/>
	<path class="st0" d="M254.6,175.6l-14,56.1c15.9,4,64.7,20.1,72.7-11.7C321.6,186.9,270.5,179.5,254.6,175.6z"/>
	<path class="st0" d="M317.9,8.6C180.8-25.5,41.8,57.9,7.7,195.1c-34.2,137.1,49.3,276,186.4,310.2
		c137.2,34.2,276.1-49.3,310.3-186.4C538.5,181.8,455,42.8,317.9,8.6z M368.8,220.5L368.8,220.5c-3.7,24.9-17.5,37-35.9,41.2
		c25.2,13.1,38,33.2,25.8,68.1c-15.2,43.3-51.2,47-99.1,37.9L248,414.3l-28.1-7l11.5-46c-7.3-1.8-14.7-3.7-22.4-5.8l-11.5,46.2
		l-28.1-7L181,348c-6.6-1.7-13.2-3.5-20-5.2l-36.6-9.1l13.9-32.2c0,0,20.7,5.5,20.4,5.1c8,2,11.5-3.2,12.9-6.7l18.4-73.6
		c1,0.2,2,0.5,3,0.7c-1.1-0.4-2.1-0.7-2.9-0.9l13.1-52.6c0.3-6-1.7-13.5-13.1-16.3c0.4-0.3-20.4-5.1-20.4-5.1l7.5-30L216,132v0.1
		c5.8,1.4,11.8,2.8,17.9,4.2l11.5-46.1l28.1,7l-11.3,45.2c7.5,1.7,15.1,3.5,22.5,5.3l11.2-44.9l28.1,7l-11.5,46.1
		C348,168.1,373.9,186.5,368.8,220.5z"/>
</g>
</svg>
