<?xml version="1.0" encoding="utf-8"?>
<!-- Generator: Adobe Illustrator 24.0.0, SVG Export Plug-In . SVG Version: 6.00 Build 0)  -->
<svg version="1.1" id="Camada_1" xmlns="http://www.w3.org/2000/svg" xmlns:xlink="http://www.w3.org/1999/xlink" x="0px" y="0px"
	 viewBox="0 0 206.6 206.7" style="enable-background:new 0 0 206.6 206.7;" xml:space="preserve">
<style type="text/css">
	.st0{fill:#CD9794;}
</style>
<path class="st0" d="M103.5,0C46.4-0.1,0.1,46.1,0,103.2c-0.1,57.1,46.1,103.4,103.2,103.5c57.1,0.1,103.4-46.1,103.5-103.2
	C206.8,46.4,160.6,0.1,103.5,0z M103.5,28.1l46.2,46.3l-17,17l-29.2-29.3L74.1,91.3l-17-17L103.5,28.1z M120.6,103.4L120.6,103.4
	l-17.3,17.2l-17.2-17.3l3-3l1.5-1.5l12.8-12.7L120.6,103.4z M28.1,103.3l17-17l17,17l-17,17L28.1,103.3z M103.3,178.6l-46.2-46.3
	l17-17l29.2,29.3l29.3-29.2l17,17L103.3,178.6z M161.6,120.5l-17-17l17-17l17,17L161.6,120.5z"/>
</svg>
