<?xml version="1.0" encoding="utf-8"?>
<!-- Generator: Adobe Illustrator 24.0.0, SVG Export Plug-In . SVG Version: 6.00 Build 0)  -->
<svg version="1.1" id="Camada_1" xmlns="http://www.w3.org/2000/svg" xmlns:xlink="http://www.w3.org/1999/xlink" x="0px" y="0px"
	 viewBox="0 0 256 256" style="enable-background:new 0 0 256 256;" xml:space="preserve">
<style type="text/css">
	.st0{fill:#CD9794;}
	.st1{fill:#FFFFFF;}
</style>
<circle id="Эллипс_8" class="st0" cx="128" cy="128" r="128"/>
<g>
	<path class="st1" d="M200.8,64.7L82.5,121.5c-0.6,0.3-1.3,0.1-1.6-0.5c-0.1-0.2-0.1-0.5-0.1-0.7c4.2-26.1,28.9-43.9,55-39.6
		c1.1,0.2,2.2,0.4,3.4,0.7c2.6,0.6,5.3,0.2,7.6-1l16.1-7.7c1.2-0.6,1.7-2,1.1-3.1c-0.2-0.4-0.5-0.7-0.9-1
		C130.3,49.3,88,60.2,68.7,93c-6.4,10.5-9.7,22.7-9.7,35c0,1,0.1,2.1,0.1,3.1l0,0c0.1,1-0.5,1.8-1.3,2.3l0,0l-2.6,1.2
		c-2,1-3.3,3-3.3,5.3v16c0,1.3,1,2.3,2.3,2.3c0.4,0,0.7-0.1,1-0.2l145.5-69.9c2-1,3.3-3,3.3-5.3v-16c0-1.3-1-2.3-2.3-2.3
		C201.4,64.5,201.1,64.6,200.8,64.7z"/>
	<path class="st1" d="M55.2,191.3l118.3-56.8c0.6-0.3,1.3-0.1,1.6,0.5c0.1,0.2,0.1,0.5,0.1,0.7c-4.2,26.1-28.9,43.9-55,39.6
		c-1.1-0.2-2.2-0.4-3.4-0.7c-2.6-0.6-5.3-0.2-7.6,1l-16.1,7.7c-1.2,0.6-1.7,2-1.1,3.1c0.2,0.4,0.5,0.7,0.9,1
		c32.8,19.3,75.1,8.4,94.4-24.4c6.3-10.6,9.6-22.8,9.5-35.1c0-1-0.1-2.1-0.1-3.1l0,0c-0.1-1,0.5-1.8,1.3-2.3l0,0l2.6-1.2
		c2-1,3.3-3,3.3-5.3v-16c0-1.3-1-2.3-2.3-2.3c-0.4,0-0.7,0.1-1,0.2l-145.4,70c-2,1-3.3,3-3.3,5.3v16c0,1.3,1.1,2.3,2.3,2.3
		C54.6,191.5,54.9,191.4,55.2,191.3z"/>
</g>
</svg>
