<?xml version="1.0" encoding="utf-8"?>
<!-- Generator: Adobe Illustrator 24.0.0, SVG Export Plug-In . SVG Version: 6.00 Build 0)  -->
<svg version="1.1" id="Camada_1" xmlns="http://www.w3.org/2000/svg" xmlns:xlink="http://www.w3.org/1999/xlink" x="0px" y="0px"
	 viewBox="0 0 512 512" style="enable-background:new 0 0 512 512;" xml:space="preserve">
<style type="text/css">
	.st0{fill:#CD9794;}
</style>
<path class="st0" d="M76,240c12.1,0,23.1-4.8,31.2-12.6l44.1,22.1c-0.2,1.8-0.4,3.7-0.4,5.6c0,24.8,20.2,45,45,45s45-20.2,45-45
	c0-6.9-1.6-13.5-4.4-19.4l60-60c5.9,2.8,12.5,4.4,19.4,4.4c24.8,0,45-20.2,45-45c0-4.7-0.7-9.2-2.1-13.5l52.1-39.1
	c7.1,4.8,15.7,7.6,24.9,7.6c24.8,0,45-20.2,45-45S460.8,0,436,0s-45,20.2-45,45c0,4.7,0.7,9.2,2.1,13.5l-52.1,39.1
	c-7.1-4.8-15.7-7.6-24.9-7.6c-24.8,0-45,20.2-45,45c0,6.9,1.6,13.5,4.4,19.4l-60,60c-5.9-2.8-12.5-4.4-19.4-4.4
	c-12.1,0-23.1,4.8-31.2,12.6l-44.1-22.1c0.2-1.8,0.4-3.7,0.4-5.6c0-24.8-20.2-45-45-45s-45,20.2-45,45S51.2,240,76,240z M436,30
	c8.3,0,15,6.7,15,15s-6.7,15-15,15s-15-6.7-15-15S427.7,30,436,30z M316,120c8.3,0,15,6.7,15,15s-6.7,15-15,15s-15-6.7-15-15
	S307.7,120,316,120z M196,240c8.3,0,15,6.7,15,15s-6.7,15-15,15s-15-6.7-15-15S187.7,240,196,240z M76,180c8.3,0,15,6.7,15,15
	s-6.7,15-15,15s-15-6.7-15-15S67.7,180,76,180z"/>
<path class="st0" d="M497,482h-16V165c0-8.3-6.7-15-15-15h-60c-8.3,0-15,6.7-15,15v317h-30V255c0-8.3-6.7-15-15-15h-60
	c-8.3,0-15,6.7-15,15v227h-30V375c0-8.3-6.7-15-15-15h-60c-8.3,0-15,6.7-15,15v107h-30V315c0-8.3-6.7-15-15-15H46
	c-8.3,0-15,6.7-15,15v167H15c-8.3,0-15,6.7-15,15s6.7,15,15,15h482c8.3,0,15-6.7,15-15S505.3,482,497,482z M421,180h30v302h-30V180z
	 M301,270h30v212h-30V270z M181,390h30v92h-30V390z M61,330h30v152H61V330z"/>
</svg>
