<?xml version="1.0" encoding="utf-8"?>
<!-- Generator: Adobe Illustrator 24.0.0, SVG Export Plug-In . SVG Version: 6.00 Build 0)  -->
<svg version="1.1" id="Camada_1" xmlns="http://www.w3.org/2000/svg" xmlns:xlink="http://www.w3.org/1999/xlink" x="0px" y="0px"
	 viewBox="0 0 512 512" style="enable-background:new 0 0 512 512;" xml:space="preserve">
<style type="text/css">
	.st0{fill:#CD9794;}
</style>
<path class="st0" d="M437,75C388.7,26.6,324.4,0,256,0S123.3,26.6,75,75S0,187.6,0,256s26.6,132.7,75,181s112.6,75,181,75
	s132.7-26.6,181-75s75-112.6,75-181S485.4,123.3,437,75z M256,472c-119.1,0-216-96.9-216-216S136.9,40,256,40s216,96.9,216,216
	S375.1,472,256,472z M276,236h90v40h-90v90h-40v-90h-90v-40h90v-90h40V236z"/>
</svg>
