<?xml version="1.0" encoding="utf-8"?>
<!-- Generator: Adobe Illustrator 24.0.0, SVG Export Plug-In . SVG Version: 6.00 Build 0)  -->
<svg version="1.1" id="Camada_1" xmlns="http://www.w3.org/2000/svg" xmlns:xlink="http://www.w3.org/1999/xlink" x="0px" y="0px"
	 viewBox="0 0 252.3 277" style="enable-background:new 0 0 252.3 277;" xml:space="preserve">
<style type="text/css">
	.st0{fill:#CD9794;}
</style>
<path class="st0" d="M247.3,170h-5v-44.4c0-2.8-2.2-5-5-5h-23.6V93.7c0-2.8-2.2-5-5-5h-16.4c-2.8,0-5,2.2-5,5s2.2,5,5,5h11.4v22
	h-28.5v-52h29.4c2.8,0,5-2.2,5-5V40.2c10-2.6,16.4-12.3,15-22.5C223.3,7.6,214.5,0,204.2,0.1s-18.9,7.9-20,18.1s5.5,19.7,15.5,22.1
	v18.3h-29.4c-2.8,0-5,2.2-5,5v25h-15.8c-2.8,0-5,2.2-5,5s2.2,5,5,5h15.8v22h-34.1V40.3c10-2.5,16.6-12.1,15.3-22.4
	C145.2,7.7,136.5,0,126.2,0s-19,7.7-20.3,17.9s5.3,19.8,15.3,22.4v48.4h-14.3c-2.8,0-5,2.2-5,5s2.2,5,5,5h14.3v22h-34v-57
	c0-2.8-2.2-5-5-5H52.9V40.3c10-2.5,16.6-12.1,15.3-22.4C66.9,7.7,58.2,0,47.9,0s-19,7.7-20.3,17.9s5.3,19.8,15.3,22.4v23.4
	c0,2.8,2.2,5,5,5h29.4v20H21c-11.6,0-20.9,9.4-21,21V272c0,2.8,2.2,5,5,5h232.3c2.8,0,5-2.2,5-5v-26c0-2.8-2.2-5-5-5s-5,2.2-5,5v21
	H10V127.4c3.3,2.1,7.1,3.2,11,3.2h211.3V170H194c-15.7,0.3-28.3,13.1-28.3,28.8s12.6,28.5,28.3,28.8h53.3c2.8,0,5-2.2,5-5V175
	C252.3,172.3,250,170,247.3,170z M194,20.5c0-5.8,4.7-10.5,10.5-10.5S215,14.7,215,20.5S210.3,31,204.5,31S194,26.3,194,20.5z
	 M115.7,20.5c0-5.8,4.7-10.5,10.5-10.5s10.5,4.7,10.5,10.5S132,31,126.2,31S115.7,26.3,115.7,20.5z M37.4,20.5
	c0-5.8,4.7-10.5,10.5-10.5s10.5,4.7,10.5,10.5S53.7,31,47.9,31S37.4,26.3,37.4,20.5z M10,109.7c0-6.1,4.9-11,11-11h56.3v22H21
	C14.9,120.6,10,115.7,10,109.7z M242.3,217.6H194c-10.4,0-18.8-8.4-18.8-18.8c0-10.4,8.4-18.8,18.8-18.8h48.3V217.6z"/>
<path class="st0" d="M194.5,190.3c-4.7,0-8.5,3.8-8.5,8.5s3.8,8.5,8.6,8.5c4.7,0,8.5-3.8,8.5-8.6C203,194.1,199.2,190.3,194.5,190.3
	z"/>
</svg>
