<?xml version="1.0" encoding="utf-8"?>
<!-- Generator: Adobe Illustrator 24.0.0, SVG Export Plug-In . SVG Version: 6.00 Build 0)  -->
<svg version="1.1" id="Layer_1" xmlns="http://www.w3.org/2000/svg" xmlns:xlink="http://www.w3.org/1999/xlink" x="0px" y="0px"
	 viewBox="0 0 480 479.9" style="enable-background:new 0 0 480 479.9;" xml:space="preserve">
<style type="text/css">
	.st0{fill:#CD9794;stroke:#CD9794;stroke-miterlimit:10;}
</style>
<path class="st0" d="M218.7,43.8c-7.3-2.6-14.9-3.9-22.7-3.9v16c5.9,0,11.8,1,17.3,3L218.7,43.8z"/>
<path class="st0" d="M173.3,43.8c-27.1,9.6-45.3,35.4-45.3,64.1h16c0-22,13.9-41.7,34.7-49L173.3,43.8z"/>
<path class="st0" d="M400,356.6v-30.1c45.3-7.6,80-47.1,80-94.6c0-52.9-43.1-96-96-96c-11.4,0-22.5,2-33.1,5.9
	c-4.6-21.6-23.9-37.9-46.9-37.9c0,0,0,0-0.1,0c-2.1-57.7-49.7-104-107.9-104c-59.6,0-108,48.4-108,108c0,4.4,0.3,8.8,0.8,13.2
	C38.4,128.5,0,172.1,0,223.9C0,273,34.2,314.1,80,325v31.6l-53.7,53.7c-1.5,1.5-2.3,3.5-2.3,5.7v32h16v-28.7l53.7-53.7
	c1.5-1.5,2.3-3.5,2.3-5.7v-32.4c2.6,0.2,5.3,0.4,8,0.4h24v44.7l-37.7,37.7c-1.5,1.5-2.3,3.5-2.3,5.7v32h16v-28.7l37.7-37.7
	c1.5-1.5,2.3-3.5,2.3-5.7v-48h40v60.7l-21.7,21.7c-1.5,1.5-2.3,3.5-2.3,5.7v32h16v-28.7l21.7-21.7c1.5-1.5,2.3-3.5,2.3-5.7v-64h32
	v120h16v-120h32v64c0,2.1,0.8,4.2,2.3,5.7l21.7,21.7v28.6h16v-32c0-2.1-0.8-4.2-2.3-5.7L296,388.6v-60.7h40v48
	c0,2.1,0.8,4.2,2.3,5.7l37.7,37.7v28.6h16v-32c0-2.1-0.8-4.2-2.3-5.7L352,372.6v-44.7h32v32c0,2.1,0.8,4.2,2.3,5.7l53.7,53.7v28.6
	h16v-32c0-2.1-0.8-4.2-2.3-5.7L400,356.6z M104,311.9c-48.5,0-88-39.5-88-88c0-46.3,36.3-84.9,82.6-87.7c2.3-0.1,4.5-1.3,5.9-3.1
	s2-4.2,1.5-6.5c-1.3-6.1-1.9-12.4-1.9-18.7c0-50.7,41.3-92,92-92s92,41.3,92,92c0,0.9-0.1,1.8-0.1,2.7l-0.1,1.8
	c-0.1,2.5,0.9,4.9,2.8,6.5s4.4,2.2,6.8,1.7c20.1-4.2,38.6,11.5,38.6,31.2c0,0.2-0.1,1.2-0.2,1.5c-0.2,2.9,1.2,5.6,3.6,7.1
	s5.4,1.7,8,0.4c11.5-5.9,23.7-8.9,36.5-8.9c44.1,0,80,35.9,80,80s-35.9,80-80,80H104z"/>
<path class="st0" d="M440,463.9h16v16h-16V463.9z"/>
<path class="st0" d="M376,463.9h16v16h-16V463.9z"/>
<path class="st0" d="M304,463.9h16v16h-16V463.9z"/>
<path class="st0" d="M24,463.9h16v16H24V463.9z"/>
<path class="st0" d="M88,463.9h16v16H88V463.9z"/>
<path class="st0" d="M160,463.9h16v16h-16V463.9z"/>
<path class="st0" d="M232,463.9h16v16h-16V463.9z"/>
<path class="st0" d="M200,175.9h16v16h-16V175.9z"/>
<path class="st0" d="M200,207.9h16v16h-16V207.9z"/>
<path class="st0" d="M200,239.9h16v16h-16V239.9z"/>
<path class="st0" d="M232,175.9h16v16h-16V175.9z"/>
<path class="st0" d="M232,207.9h16v16h-16V207.9z"/>
<path class="st0" d="M232,239.9h16v16h-16V239.9z"/>
<path class="st0" d="M264,175.9h16v16h-16V175.9z"/>
<path class="st0" d="M264,207.9h16v16h-16V207.9z"/>
<path class="st0" d="M264,239.9h16v16h-16V239.9z"/>
<path class="st0" d="M296,271.9h-32v16h40c4.4,0,8-3.6,8-8v-48h-16V271.9z"/>
<path class="st0" d="M224,143.9h-48c-4.4,0-8,3.6-8,8v48h16v-40h40V143.9z"/>
<path class="st0" d="M216,271.9h32v16h-32V271.9z"/>
<path class="st0" d="M240,143.9h24v16h-24V143.9z"/>
<path class="st0" d="M304,143.9h-24v16h16v56h16v-64C312,147.5,308.4,143.9,304,143.9z"/>
<path class="st0" d="M184,215.9h-16v64c0,4.4,3.6,8,8,8h24v-16h-16V215.9z"/>
</svg>
