<?xml version="1.0" encoding="utf-8"?>
<!-- Generator: Adobe Illustrator 24.0.0, SVG Export Plug-In . SVG Version: 6.00 Build 0)  -->
<svg version="1.1" id="Capa_1" xmlns="http://www.w3.org/2000/svg" xmlns:xlink="http://www.w3.org/1999/xlink" x="0px" y="0px"
	 viewBox="0 0 486 453" style="enable-background:new 0 0 486 453;" xml:space="preserve">
<style type="text/css">
	.st0{fill:#9A999E;stroke:#9A999E;stroke-width:16;stroke-miterlimit:10;}
</style>
<g>
	<g>
		<path class="st0" d="M465.7,221.1c-7.5,0-13.5,6-13.5,13.5v122.8c0,33.4-27.2,60.5-60.5,60.5H95.5C62.1,418,35,390.8,35,357.5
			V232.6c0-7.5-6-13.5-13.5-13.5S8,225.1,8,232.6v124.8C8,405.8,47.3,445,95.5,445h296.2c48.3,0,87.5-39.3,87.5-87.5V234.6
			C479.2,227.2,473.2,221.1,465.7,221.1z"/>
		<path class="st0" d="M234.1,337.8c2.6,2.6,6.1,4,9.5,4s6.9-1.3,9.5-4l85.8-85.8c5.3-5.3,5.3-13.8,0-19.1s-13.8-5.3-19.1,0
			l-62.7,62.8v-274c0-7.5-6-13.5-13.5-13.5s-13.5,6-13.5,13.5v273.9l-62.8-62.8c-5.3-5.3-13.8-5.3-19.1,0s-5.3,13.8,0,19.1
			L234.1,337.8z"/>
	</g>
</g>
</svg>
