<?xml version="1.0" encoding="utf-8"?>
<!-- Generator: Adobe Illustrator 24.0.0, SVG Export Plug-In . SVG Version: 6.00 Build 0)  -->
<svg version="1.1" id="Camada_1" xmlns="http://www.w3.org/2000/svg" xmlns:xlink="http://www.w3.org/1999/xlink" x="0px" y="0px"
	 viewBox="0 0 512 448" style="enable-background:new 0 0 512 448;" xml:space="preserve">
<style type="text/css">
	.st0{fill:#CD9794;}
</style>
<path class="st0" d="M504,0H8C3.6,0,0,3.6,0,8v432c0,4.4,3.6,8,8,8h496c4.4,0,8-3.6,8-8V8C512,3.6,508.4,0,504,0z M16,16h480v48H16
	V16z M16,432V80h480v352H16z"/>
<path class="st0" d="M48,32h16v16H48V32z"/>
<path class="st0" d="M80,32h16v16H80V32z"/>
<path class="st0" d="M112,32h16v16h-16V32z"/>
<path class="st0" d="M416,32h48v16h-48V32z"/>
<path class="st0" d="M176,336v-32c0-4.4-3.6-8-8-8h-16v16h8v16h-24v-48h40v-16h-40c-8.8,0-16,7.2-16,16v48c0,8.8,7.2,16,16,16h32
	C172.4,344,176,340.4,176,336z"/>
<path class="st0" d="M200,264c-4.4,0-8,3.6-8,8v64c0,4.4,3.6,8,8,8h24c13.2,0,24-10.8,24-24v-32c0-13.2-10.8-24-24-24H200z M232,288
	v32c0,4.4-3.6,8-8,8h-16v-48h16C228.4,280,232,283.6,232,288z"/>
<path class="st0" d="M272,264c-4.4,0-8,3.6-8,8v72h16v-24h16c13.2,0,24-10.8,24-24v-8c0-13.2-10.8-24-24-24H272z M304,288v8
	c0,4.4-3.6,8-8,8h-16v-24h16C300.4,280,304,283.6,304,288z"/>
<path class="st0" d="M368,264h-24c-4.4,0-8,3.6-8,8v72h16v-24h17.6l6.4,10.3V344h16v-16c0-1.5-0.4-3-1.2-4.2l-6.4-10.3
	c4.7-4.4,7.6-10.6,7.6-17.5v-8C392,274.8,381.2,264,368,264z M352,304v-24h16c4.4,0,8,3.6,8,8v8c0,4.4-3.6,8-8,8H352z"/>
<path class="st0" d="M328,384H184v-24h-16v32c0,4.4,3.6,8,8,8h160c4.4,0,8-3.6,8-8v-32h-16V384z"/>
<path class="st0" d="M184,232h144v16h16v-24c0-4.4-3.6-8-8-8h-24v-48c0-30.9-25.1-56-56-56s-56,25.1-56,56v48h-24c-4.4,0-8,3.6-8,8
	v24h16V232z M216,168c0-22.1,17.9-40,40-40s40,17.9,40,40v48h-80V168z"/>
</svg>
