<?xml version="1.0" encoding="utf-8"?>
<!-- Generator: Adobe Illustrator 24.0.0, SVG Export Plug-In . SVG Version: 6.00 Build 0)  -->
<svg version="1.1" id="Layer_1" xmlns="http://www.w3.org/2000/svg" xmlns:xlink="http://www.w3.org/1999/xlink" x="0px" y="0px"
	 viewBox="0 0 512 512" style="enable-background:new 0 0 512 512;" xml:space="preserve">
<style type="text/css">
	.st0{fill:#CD9794;}
</style>
<path class="st0" d="M86,125.8c2.3,0,3.7-0.9,5.1-1.7c3.9-2.1,5.3-7,3.2-10.8c-2.1-3.9-7-5.3-10.8-3.2c-0.5,0.2-0.9,0.5-1.4,0.7
	C74.9,114.8,77.8,125.8,86,125.8z"/>
<path class="st0" d="M159,154.7c36.7,0,70.6,21.5,86.2,54.7c1.9,4,6.7,5.7,10.6,3.8c4-1.9,5.7-6.7,3.8-10.6
	c-18.3-38.8-57.8-63.9-100.7-63.9c-87,0-138.5,95.2-96.8,166.3c43.4,76.2,153.9,74.6,195.1-2.8c8.5-16,13-34,13-52.2
	c0-4.4-3.6-8-8-8c-4.4,0-8,3.6-8,8c0,14.9-3.5,29.8-10.2,43h-21.8v-86c0-6.6-7.7-10.4-12.9-6.3L159,239.9l-50.3-39.2
	c-5.2-4.1-12.9-0.3-12.9,6.3v86H73.9C42.1,230,87.9,154.7,159,154.7L159,154.7z M103.7,309c4.4,0,8-3.6,8-8v-77.6l42.3,32.9
	c2.9,2.2,6.9,2.2,9.8,0l42.3-32.9V301c0,4.4,3.6,8,8,8h19.6c-38.1,48.4-111.6,48.4-149.7,0H103.7z"/>
<path class="st0" d="M376.3,201.1l14.2-21.5c2.4-3.7,1.4-8.7-2.3-11.1c-3.7-2.4-8.7-1.4-11.1,2.3L359.9,197c-5-1-10.1-1.7-15.2-2.2
	l-15.7-23.9c-2.4-3.7-7.4-4.7-11.1-2.3c-3.7,2.4-4.7,7.4-2.3,11.1l9.5,14.4c-5.6,0.1-11.2,0.6-16.7,1.3c-9.3-25.2-25.1-48-45.4-65.7
	c12.5-39,49.4-66,90.5-66c68,0,113.8,69.6,87.6,131.8c-1.7,4.1,0.2,8.8,4.3,10.5c4.1,1.7,8.8-0.2,10.5-4.3
	c30.7-72.8-23-154-102.3-154c-47.7,0-87.9,29.9-103.8,71.6c-8.9-6.2-18.5-11.5-28.4-15.7C243.3,50.9,295.3,16,353,16
	C467.7,16,534.4,144.3,472.2,238c-3.6,5.4,0.4,12.4,6.7,12.4c2.6,0,5.1-1.3,6.7-3.6C554.7,142.6,480.5,0,353,0
	c-64.4,0-122.4,39.1-146.9,98.1c-30.5-9.4-63.5-9.4-93.8-0.1c-4.2,1.3-6.6,5.8-5.3,10s5.8,6.6,10,5.3c42.3-13,89.7-5.9,126.9,21.7
	c85.1,62.9,75.9,195.8-22.4,243.7C127.2,424.6,16,355.8,16,250c0-39.8,16.8-78.1,46.1-105.1c3.2-3,3.5-8.1,0.5-11.3
	c-3-3.2-8.1-3.4-11.3-0.5C18.7,163.1,0,205.7,0,250c0,117.6,123.6,194.1,228.5,143c51-24.8,86.1-75.7,89.2-134.6
	c57.7-7,107.1,38.2,107.1,94.7c0,52.6-42.8,95.4-95.4,95.4c-29.6,0-57-13.4-75.2-36.7c-2.7-3.5-7.7-4.1-11.2-1.4
	c-3.5,2.7-4.1,7.7-1.4,11.2c21.3,27.3,53.3,42.9,87.9,42.9c61.5,0,111.4-50,111.4-111.4c0-65.4-56.6-117.7-123.1-110.8
	c-0.5-10.6-2.1-21.2-4.7-31.4c17.9-2,37.4-0.2,48.3,2.8C424.5,228.2,472,285,472,353c0,78.8-64.1,143-143,143
	c-47,0-91-23.1-117.8-61.8c-2.5-3.6-7.5-4.5-11.1-2c-3.6,2.5-4.5,7.5-2,11.1C227.8,486.3,276.7,512,329,512c87.7,0,159-71.3,159-159
	C488,281.4,440.6,221.1,376.3,201.1L376.3,201.1z"/>
<path class="st0" d="M300.4,414H367c4.4,0,8-3.6,8-8c0-4.4-3.6-8-8-8h-55.5l15.3-45.2l26.7-5.6c4.3-0.9,7.1-5.2,6.2-9.5
	c-0.9-4.3-5.1-7.1-9.5-6.2l-17.5,3.7l13.1-38.6c1.4-4.2-0.8-8.7-5-10.1c-4.2-1.4-8.7,0.8-10.1,5L314.6,339l-15,3.1
	c-4.3,0.9-7.1,5.1-6.2,9.5c0.9,4.3,5.1,7.1,9.5,6.2l5.7-1.2l-15.8,46.8C291,408.6,294.9,414,300.4,414L300.4,414z"/>
<path class="st0" d="M346.1,88l-30.8,52.5c-2.1,3.7-1.1,8.4,2.5,10.7l30.8,20.5c2.7,1.8,6.2,1.8,8.9,0l30.8-20.5
	c3.5-2.4,4.6-7,2.5-10.7L359.9,88C356.8,82.7,349.2,82.7,346.1,88z M353,155.4L332.9,142l20.1-34.2L373,142L353,155.4z"/>
</svg>
