<?xml version="1.0" encoding="utf-8"?>
<!-- Generator: Adobe Illustrator 24.0.0, SVG Export Plug-In . SVG Version: 6.00 Build 0)  -->
<svg version="1.1" id="Layer_6" xmlns="http://www.w3.org/2000/svg" xmlns:xlink="http://www.w3.org/1999/xlink" x="0px" y="0px"
	 viewBox="0 0 67.9 67.8" style="enable-background:new 0 0 67.9 67.8;" xml:space="preserve">
<style type="text/css">
	.st0{clip-path:url(#SVGID_2_);fill:#FFFFFF;}
	.st1{clip-path:url(#SVGID_4_);fill:#FFFFFF;}
	.st2{clip-path:url(#SVGID_6_);fill:#FFFFFF;}
	.st3{clip-path:url(#SVGID_8_);fill:#FFFFFF;}
	.st4{clip-path:url(#SVGID_10_);fill:#FFFFFF;}
	.st5{fill:none;stroke:#FFFFFF;stroke-width:2;stroke-miterlimit:10;}
</style>
<g>
	<g>
		<g>
			<defs>
				<path id="SVGID_1_" d="M24.3,42.2h-2.7c0,5.1,4.2,9.3,9.3,9.3v-2.7C27.2,48.8,24.3,45.9,24.3,42.2z"/>
			</defs>
			<use xlink:href="#SVGID_1_"  style="overflow:visible;fill:#FFFFFF;"/>
			<clipPath id="SVGID_2_">
				<use xlink:href="#SVGID_1_"  style="overflow:visible;"/>
			</clipPath>
			<polygon class="st0" points="21.6,46.1 27,51.5 21.6,51.5 			"/>
			<polygon class="st0" points="21.6,46 27.1,51.5 27,51.5 21.6,46.1 			"/>
			<polygon class="st0" points="21.6,45.9 27.2,51.5 27.1,51.5 21.6,46 			"/>
			<polygon class="st0" points="21.6,45.9 27.3,51.5 27.2,51.5 21.6,45.9 			"/>
			<polygon class="st0" points="21.6,45.8 27.3,51.5 27.3,51.5 21.6,45.9 			"/>
			<polygon class="st0" points="21.6,45.7 27.4,51.5 27.3,51.5 21.6,45.8 			"/>
			<polygon class="st0" points="21.6,45.7 27.5,51.5 27.4,51.5 21.6,45.7 			"/>
			<polygon class="st0" points="21.6,45.6 27.5,51.5 27.5,51.5 21.6,45.7 			"/>
			<polygon class="st0" points="21.6,45.5 27.6,51.5 27.5,51.5 21.6,45.6 			"/>
			<polygon class="st0" points="21.6,45.5 27.7,51.5 27.6,51.5 21.6,45.5 			"/>
			<polygon class="st0" points="21.6,45.4 27.7,51.5 27.7,51.5 21.6,45.5 			"/>
			<polygon class="st0" points="21.6,45.3 27.8,51.5 27.7,51.5 21.6,45.4 			"/>
			<polygon class="st0" points="21.6,45.2 27.9,51.5 27.8,51.5 21.6,45.3 			"/>
			<polygon class="st0" points="21.6,45.2 27.9,51.5 27.9,51.5 21.6,45.2 			"/>
			<polygon class="st0" points="21.6,45.1 28,51.5 27.9,51.5 21.6,45.2 			"/>
			<polygon class="st0" points="21.6,45 28.1,51.5 28,51.5 21.6,45.1 			"/>
			<polygon class="st0" points="21.6,45 28.2,51.5 28.1,51.5 21.6,45 			"/>
			<polygon class="st0" points="21.6,44.9 28.2,51.5 28.2,51.5 21.6,45 			"/>
			<polygon class="st0" points="21.6,44.8 28.3,51.5 28.2,51.5 21.6,44.9 			"/>
			<polygon class="st0" points="21.6,44.8 28.4,51.5 28.3,51.5 21.6,44.8 			"/>
			<polygon class="st0" points="21.6,44.7 28.4,51.5 28.4,51.5 21.6,44.8 			"/>
			<polygon class="st0" points="21.6,44.6 28.5,51.5 28.4,51.5 21.6,44.7 			"/>
			<polygon class="st0" points="21.6,44.6 28.6,51.5 28.5,51.5 21.6,44.6 			"/>
			<polygon class="st0" points="21.6,44.5 28.6,51.5 28.6,51.5 21.6,44.6 			"/>
			<polygon class="st0" points="21.6,44.4 28.7,51.5 28.6,51.5 21.6,44.5 			"/>
			<polygon class="st0" points="21.6,44.4 28.8,51.5 28.7,51.5 21.6,44.4 			"/>
			<polygon class="st0" points="21.6,44.3 28.8,51.5 28.8,51.5 21.6,44.4 			"/>
			<polygon class="st0" points="21.6,44.2 28.9,51.5 28.8,51.5 21.6,44.3 			"/>
			<polygon class="st0" points="21.6,44.1 29,51.5 28.9,51.5 21.6,44.2 			"/>
			<polygon class="st0" points="21.6,44.1 29,51.5 29,51.5 21.6,44.1 			"/>
			<polygon class="st0" points="21.6,44 29.1,51.5 29,51.5 21.6,44.1 			"/>
			<polygon class="st0" points="21.6,43.9 29.2,51.5 29.1,51.5 21.6,44 			"/>
			<polygon class="st0" points="21.6,43.9 29.3,51.5 29.2,51.5 21.6,43.9 			"/>
			<polygon class="st0" points="21.6,43.8 29.3,51.5 29.3,51.5 21.6,43.9 			"/>
			<polygon class="st0" points="21.6,43.7 29.4,51.5 29.3,51.5 21.6,43.8 			"/>
			<polygon class="st0" points="21.6,43.7 29.5,51.5 29.4,51.5 21.6,43.7 			"/>
			<polygon class="st0" points="21.6,43.6 29.5,51.5 29.5,51.5 21.6,43.7 			"/>
			<polygon class="st0" points="21.6,43.5 29.6,51.5 29.5,51.5 21.6,43.6 			"/>
			<polygon class="st0" points="21.6,43.5 29.7,51.5 29.6,51.5 21.6,43.5 			"/>
			<polygon class="st0" points="21.6,43.4 29.7,51.5 29.7,51.5 21.6,43.5 			"/>
			<polygon class="st0" points="21.6,43.3 29.8,51.5 29.7,51.5 21.6,43.4 			"/>
			<polygon class="st0" points="21.6,43.2 29.9,51.5 29.8,51.5 21.6,43.3 			"/>
			<polygon class="st0" points="21.6,43.2 29.9,51.5 29.9,51.5 21.6,43.2 			"/>
			<polygon class="st0" points="21.6,43.1 30,51.5 29.9,51.5 21.6,43.2 			"/>
			<polygon class="st0" points="21.6,43 30.1,51.5 30,51.5 21.6,43.1 			"/>
			<polygon class="st0" points="21.6,43 30.2,51.5 30.1,51.5 21.6,43 			"/>
			<polygon class="st0" points="21.6,42.9 30.2,51.5 30.2,51.5 21.6,43 			"/>
			<polygon class="st0" points="21.6,42.8 30.3,51.5 30.2,51.5 21.6,42.9 			"/>
			<polygon class="st0" points="21.6,42.8 30.4,51.5 30.3,51.5 21.6,42.8 			"/>
			<polygon class="st0" points="21.6,42.7 30.4,51.5 30.4,51.5 21.6,42.8 			"/>
			<polygon class="st0" points="21.6,42.6 30.5,51.5 30.4,51.5 21.6,42.7 			"/>
			<polygon class="st0" points="21.6,42.6 30.6,51.5 30.5,51.5 21.6,42.6 			"/>
			<polygon class="st0" points="21.6,42.5 30.6,51.5 30.6,51.5 21.6,42.6 			"/>
			<polygon class="st0" points="21.6,42.4 30.7,51.5 30.6,51.5 21.6,42.5 			"/>
			<polygon class="st0" points="21.6,42.4 30.8,51.5 30.7,51.5 21.6,42.4 			"/>
			<polygon class="st0" points="21.6,42.3 30.8,51.5 30.8,51.5 21.6,42.4 			"/>
			<polygon class="st0" points="21.6,42.2 30.9,51.5 30.9,51.5 30.8,51.5 21.6,42.3 21.6,42.2 			"/>
			<polygon class="st0" points="21.7,42.2 30.9,51.4 30.9,51.5 21.6,42.2 			"/>
			<polygon class="st0" points="21.8,42.2 30.9,51.4 30.9,51.4 21.7,42.2 			"/>
			<polygon class="st0" points="21.8,42.2 30.9,51.3 30.9,51.4 21.8,42.2 			"/>
			<polygon class="st0" points="21.9,42.2 30.9,51.2 30.9,51.3 21.8,42.2 			"/>
			<polygon class="st0" points="22,42.2 30.9,51.2 30.9,51.2 21.9,42.2 			"/>
			<polygon class="st0" points="22,42.2 30.9,51.1 30.9,51.2 22,42.2 			"/>
			<polygon class="st0" points="22.1,42.2 30.9,51 30.9,51.1 22,42.2 			"/>
			<polygon class="st0" points="22.2,42.2 30.9,51 30.9,51 22.1,42.2 			"/>
			<polygon class="st0" points="22.2,42.2 30.9,50.9 30.9,51 22.2,42.2 			"/>
			<polygon class="st0" points="22.3,42.2 30.9,50.8 30.9,50.9 22.2,42.2 			"/>
			<polygon class="st0" points="22.4,42.2 30.9,50.8 30.9,50.8 22.3,42.2 			"/>
			<polygon class="st0" points="22.4,42.2 30.9,50.7 30.9,50.8 22.4,42.2 			"/>
			<polygon class="st0" points="22.5,42.2 30.9,50.6 30.9,50.7 22.4,42.2 			"/>
			<polygon class="st0" points="22.6,42.2 30.9,50.6 30.9,50.6 22.5,42.2 			"/>
			<polygon class="st0" points="22.6,42.2 30.9,50.5 30.9,50.6 22.6,42.2 			"/>
			<polygon class="st0" points="22.7,42.2 30.9,50.4 30.9,50.5 22.6,42.2 			"/>
			<polygon class="st0" points="22.8,42.2 30.9,50.4 30.9,50.4 22.7,42.2 			"/>
			<polygon class="st0" points="22.8,42.2 30.9,50.3 30.9,50.4 22.8,42.2 			"/>
			<polygon class="st0" points="22.9,42.2 30.9,50.2 30.9,50.3 22.8,42.2 			"/>
			<polygon class="st0" points="23,42.2 30.9,50.2 30.9,50.2 22.9,42.2 			"/>
			<polygon class="st0" points="23,42.2 30.9,50.1 30.9,50.2 23,42.2 			"/>
			<polygon class="st0" points="23.1,42.2 30.9,50 30.9,50.1 23,42.2 			"/>
			<polygon class="st0" points="23.2,42.2 30.9,50 30.9,50 23.1,42.2 			"/>
			<polygon class="st0" points="23.2,42.2 30.9,49.9 30.9,50 23.2,42.2 			"/>
			<polygon class="st0" points="23.3,42.2 30.9,49.8 30.9,49.9 23.2,42.2 			"/>
			<polygon class="st0" points="23.4,42.2 30.9,49.8 30.9,49.8 23.3,42.2 			"/>
			<polygon class="st0" points="23.4,42.2 30.9,49.7 30.9,49.8 23.4,42.2 			"/>
			<polygon class="st0" points="23.5,42.2 30.9,49.6 30.9,49.7 23.4,42.2 			"/>
			<polygon class="st0" points="23.6,42.2 30.9,49.6 30.9,49.6 23.5,42.2 			"/>
			<polygon class="st0" points="23.6,42.2 30.9,49.5 30.9,49.6 23.6,42.2 			"/>
			<polygon class="st0" points="23.7,42.2 30.9,49.4 30.9,49.5 23.6,42.2 			"/>
			<polygon class="st0" points="23.8,42.2 30.9,49.4 30.9,49.4 23.7,42.2 			"/>
			<polygon class="st0" points="23.8,42.2 30.9,49.3 30.9,49.4 23.8,42.2 			"/>
			<polygon class="st0" points="23.9,42.2 30.9,49.2 30.9,49.3 23.8,42.2 			"/>
			<polygon class="st0" points="24,42.2 30.9,49.2 30.9,49.2 23.9,42.2 			"/>
			<polygon class="st0" points="24,42.2 30.9,49.1 30.9,49.2 24,42.2 			"/>
			<polygon class="st0" points="24.1,42.2 30.9,49 30.9,49.1 24,42.2 			"/>
			<polygon class="st0" points="24.2,42.2 30.9,49 30.9,49 24.1,42.2 			"/>
			<polygon class="st0" points="24.2,42.2 30.9,48.9 30.9,49 24.2,42.2 			"/>
			<polygon class="st0" points="24.3,42.2 30.9,48.8 30.9,48.9 24.2,42.2 			"/>
			<polygon class="st0" points="30.9,48.8 24.3,42.2 30.9,42.2 			"/>
		</g>
	</g>
	<g>
		<g>
			<defs>
				<path id="SVGID_3_" d="M21.6,26.4c0,5.1,4.2,9.3,9.3,9.3V33c-3.6,0-6.6-3-6.6-6.6c0-3.6,3-6.6,6.6-6.6v-2.7
					C25.8,17.1,21.6,21.3,21.6,26.4z"/>
			</defs>
			<use xlink:href="#SVGID_3_"  style="overflow:visible;fill:#FFFFFF;"/>
			<clipPath id="SVGID_4_">
				<use xlink:href="#SVGID_3_"  style="overflow:visible;"/>
			</clipPath>
			<polygon class="st1" points="21.6,30.2 27,35.7 21.6,35.7 			"/>
			<polygon class="st1" points="21.6,30 27.3,35.7 27,35.7 21.6,30.2 			"/>
			<polygon class="st1" points="21.6,29.7 27.5,35.7 27.3,35.7 21.6,30 			"/>
			<polygon class="st1" points="21.6,29.5 27.8,35.7 27.5,35.7 21.6,29.7 			"/>
			<polygon class="st1" points="21.6,29.3 28,35.7 27.8,35.7 21.6,29.5 			"/>
			<polygon class="st1" points="21.6,29 28.2,35.7 28,35.7 21.6,29.3 			"/>
			<polygon class="st1" points="21.6,28.8 28.5,35.7 28.2,35.7 21.6,29 			"/>
			<polygon class="st1" points="21.6,28.6 28.7,35.7 28.5,35.7 21.6,28.8 			"/>
			<polygon class="st1" points="21.6,28.3 28.9,35.7 28.7,35.7 21.6,28.6 			"/>
			<polygon class="st1" points="21.6,28.1 29.2,35.7 28.9,35.7 21.6,28.3 			"/>
			<polygon class="st1" points="21.6,27.8 29.4,35.7 29.2,35.7 21.6,28.1 			"/>
			<polygon class="st1" points="21.6,27.6 29.7,35.7 29.4,35.7 21.6,27.8 			"/>
			<polygon class="st1" points="21.6,27.4 29.9,35.7 29.7,35.7 21.6,27.6 			"/>
			<polygon class="st1" points="21.6,27.1 30.1,35.7 29.9,35.7 21.6,27.4 			"/>
			<polygon class="st1" points="21.6,26.9 30.4,35.7 30.1,35.7 21.6,27.1 			"/>
			<polygon class="st1" points="21.6,26.7 30.6,35.7 30.4,35.7 21.6,26.9 			"/>
			<polygon class="st1" points="21.6,26.4 30.8,35.7 30.6,35.7 21.6,26.7 			"/>
			<polygon class="st1" points="21.6,26.2 30.9,35.5 30.9,35.7 30.8,35.7 21.6,26.4 			"/>
			<polygon class="st1" points="21.6,25.9 30.9,35.2 30.9,35.5 21.6,26.2 			"/>
			<polygon class="st1" points="21.6,25.7 30.9,35 30.9,35.2 21.6,25.9 			"/>
			<polygon class="st1" points="21.6,25.5 30.9,34.7 30.9,35 21.6,25.7 			"/>
			<polygon class="st1" points="21.6,25.2 30.9,34.5 30.9,34.7 21.6,25.5 			"/>
			<polygon class="st1" points="21.6,25 30.9,34.3 30.9,34.5 21.6,25.2 			"/>
			<polygon class="st1" points="21.6,24.8 30.9,34 30.9,34.3 21.6,25 			"/>
			<polygon class="st1" points="21.6,24.5 30.9,33.8 30.9,34 21.6,24.8 			"/>
			<polygon class="st1" points="21.6,24.3 30.9,33.6 30.9,33.8 21.6,24.5 			"/>
			<polygon class="st1" points="21.6,24 30.9,33.3 30.9,33.6 21.6,24.3 			"/>
			<polygon class="st1" points="21.6,23.8 30.9,33.1 30.9,33.3 21.6,24 			"/>
			<polygon class="st1" points="21.6,23.6 30.9,32.8 30.9,33.1 21.6,23.8 			"/>
			<polygon class="st1" points="21.6,23.3 30.9,32.6 30.9,32.8 21.6,23.6 			"/>
			<polygon class="st1" points="21.6,23.1 30.9,32.4 30.9,32.6 21.6,23.3 			"/>
			<polygon class="st1" points="21.6,22.9 30.9,32.1 30.9,32.4 21.6,23.1 			"/>
			<polygon class="st1" points="21.6,22.6 30.9,31.9 30.9,32.1 21.6,22.9 			"/>
			<polygon class="st1" points="21.6,22.4 30.9,31.7 30.9,31.9 21.6,22.6 			"/>
			<polygon class="st1" points="21.6,22.1 30.9,31.4 30.9,31.7 21.6,22.4 			"/>
			<polygon class="st1" points="21.6,21.9 30.9,31.2 30.9,31.4 21.6,22.1 			"/>
			<polygon class="st1" points="21.6,21.7 30.9,30.9 30.9,31.2 21.6,21.9 			"/>
			<polygon class="st1" points="21.6,21.4 30.9,30.7 30.9,30.9 21.6,21.7 			"/>
			<polygon class="st1" points="21.6,21.2 30.9,30.5 30.9,30.7 21.6,21.4 			"/>
			<polygon class="st1" points="21.6,21 30.9,30.2 30.9,30.5 21.6,21.2 			"/>
			<polygon class="st1" points="21.6,20.7 30.9,30 30.9,30.2 21.6,21 			"/>
			<polygon class="st1" points="21.6,20.5 30.9,29.8 30.9,30 21.6,20.7 			"/>
			<polygon class="st1" points="21.6,20.2 30.9,29.5 30.9,29.8 21.6,20.5 			"/>
			<polygon class="st1" points="21.6,20 30.9,29.3 30.9,29.5 21.6,20.2 			"/>
			<polygon class="st1" points="21.6,19.8 30.9,29 30.9,29.3 21.6,20 			"/>
			<polygon class="st1" points="21.6,19.5 30.9,28.8 30.9,29 21.6,19.8 			"/>
			<polygon class="st1" points="21.6,19.3 30.9,28.6 30.9,28.8 21.6,19.5 			"/>
			<polygon class="st1" points="21.6,19.1 30.9,28.3 30.9,28.6 21.6,19.3 			"/>
			<polygon class="st1" points="21.6,18.8 30.9,28.1 30.9,28.3 21.6,19.1 			"/>
			<polygon class="st1" points="21.6,18.6 30.9,27.9 30.9,28.1 21.6,18.8 			"/>
			<polygon class="st1" points="21.6,18.4 21.6,18.4 30.9,27.6 30.9,27.9 21.6,18.6 			"/>
			<polygon class="st1" points="21.6,18.4 21.8,18.3 30.9,27.4 30.9,27.6 			"/>
			<polygon class="st1" points="21.8,18.3 21.9,18.2 30.9,27.2 30.9,27.4 			"/>
			<polygon class="st1" points="21.9,18.2 22,18.1 30.9,27 30.9,27.2 			"/>
			<polygon class="st1" points="22,18.1 22.1,17.9 30.9,26.7 30.9,27 			"/>
			<polygon class="st1" points="22.1,17.9 22.2,17.8 30.9,26.5 30.9,26.7 			"/>
			<polygon class="st1" points="22.2,17.8 22.3,17.7 30.9,26.3 30.9,26.5 			"/>
			<polygon class="st1" points="22.3,17.7 22.4,17.6 30.9,26 30.9,26.3 			"/>
			<polygon class="st1" points="22.4,17.6 22.6,17.5 30.9,25.8 30.9,26 			"/>
			<polygon class="st1" points="22.6,17.5 22.7,17.4 30.9,25.6 30.9,25.8 			"/>
			<polygon class="st1" points="22.7,17.4 22.8,17.3 30.9,25.4 30.9,25.6 			"/>
			<polygon class="st1" points="22.8,17.3 22.9,17.1 30.9,25.1 30.9,25.4 			"/>
			<polygon class="st1" points="22.9,17.1 22.9,17.1 23.1,17.1 30.9,24.9 30.9,25.1 			"/>
			<polygon class="st1" points="23.3,17.1 30.9,24.7 30.9,24.9 23.1,17.1 			"/>
			<polygon class="st1" points="23.6,17.1 30.9,24.4 30.9,24.7 23.3,17.1 			"/>
			<polygon class="st1" points="23.8,17.1 30.9,24.2 30.9,24.4 23.6,17.1 			"/>
			<polygon class="st1" points="24,17.1 30.9,24 30.9,24.2 23.8,17.1 			"/>
			<polygon class="st1" points="24.2,17.1 30.9,23.7 30.9,24 24,17.1 			"/>
			<polygon class="st1" points="24.5,17.1 30.9,23.5 30.9,23.7 24.2,17.1 			"/>
			<polygon class="st1" points="24.7,17.1 30.9,23.3 30.9,23.5 24.5,17.1 			"/>
			<polygon class="st1" points="24.9,17.1 30.9,23.1 30.9,23.3 24.7,17.1 			"/>
			<polygon class="st1" points="25.2,17.1 30.9,22.8 30.9,23.1 24.9,17.1 			"/>
			<polygon class="st1" points="25.4,17.1 30.9,22.6 30.9,22.8 25.2,17.1 			"/>
			<polygon class="st1" points="25.6,17.1 30.9,22.4 30.9,22.6 25.4,17.1 			"/>
			<polygon class="st1" points="25.8,17.1 30.9,22.1 30.9,22.4 25.6,17.1 			"/>
			<polygon class="st1" points="26.1,17.1 30.9,21.9 30.9,22.1 25.8,17.1 			"/>
			<polygon class="st1" points="26.3,17.1 30.9,21.7 30.9,21.9 26.1,17.1 			"/>
			<polygon class="st1" points="26.5,17.1 30.9,21.5 30.9,21.7 26.3,17.1 			"/>
			<polygon class="st1" points="26.8,17.1 30.9,21.2 30.9,21.5 26.5,17.1 			"/>
			<polygon class="st1" points="27,17.1 30.9,21 30.9,21.2 26.8,17.1 			"/>
			<polygon class="st1" points="27.2,17.1 30.9,20.8 30.9,21 27,17.1 			"/>
			<polygon class="st1" points="27.4,17.1 30.9,20.5 30.9,20.8 27.2,17.1 			"/>
			<polygon class="st1" points="27.7,17.1 30.9,20.3 30.9,20.5 27.4,17.1 			"/>
			<polygon class="st1" points="27.9,17.1 30.9,20.1 30.9,20.3 27.7,17.1 			"/>
			<polygon class="st1" points="28.1,17.1 30.9,19.9 30.9,20.1 27.9,17.1 			"/>
			<polygon class="st1" points="28.4,17.1 30.9,19.6 30.9,19.9 28.1,17.1 			"/>
			<polygon class="st1" points="28.6,17.1 30.9,19.4 30.9,19.6 28.4,17.1 			"/>
			<polygon class="st1" points="28.8,17.1 30.9,19.2 30.9,19.4 28.6,17.1 			"/>
			<polygon class="st1" points="29,17.1 30.9,18.9 30.9,19.2 28.8,17.1 			"/>
			<polygon class="st1" points="29.3,17.1 30.9,18.7 30.9,18.9 29,17.1 			"/>
			<polygon class="st1" points="29.5,17.1 30.9,18.5 30.9,18.7 29.3,17.1 			"/>
			<polygon class="st1" points="29.7,17.1 30.9,18.3 30.9,18.5 29.5,17.1 			"/>
			<polygon class="st1" points="30,17.1 30.9,18 30.9,18.3 29.7,17.1 			"/>
			<polygon class="st1" points="30.2,17.1 30.9,17.8 30.9,18 30,17.1 			"/>
			<polygon class="st1" points="30.4,17.1 30.9,17.6 30.9,17.8 30.2,17.1 			"/>
			<polygon class="st1" points="30.7,17.1 30.9,17.3 30.9,17.6 30.4,17.1 			"/>
			<polygon class="st1" points="30.9,17.1 30.9,17.1 30.9,17.3 30.7,17.1 			"/>
			<path class="st1" d="M30.9,17.1L30.9,17.1L30.9,17.1z"/>
		</g>
	</g>
	<g>
		<g>
			<defs>
				<path id="SVGID_5_" d="M37.3,33v2.7c3.6,0,6.6,3,6.6,6.6c0,3.6-3,6.6-6.6,6.6v2.7c5.1,0,9.3-4.2,9.3-9.3
					C46.6,37.1,42.4,33,37.3,33z"/>
			</defs>
			<use xlink:href="#SVGID_5_"  style="overflow:visible;fill:#FFFFFF;"/>
			<clipPath id="SVGID_6_">
				<use xlink:href="#SVGID_5_"  style="overflow:visible;"/>
			</clipPath>
			<path class="st2" d="M37.3,51.5L37.3,51.5L37.3,51.5z"/>
			<path class="st2" d="M37.3,51.3l0.2,0.2L37.3,51.3z"/>
			<polygon class="st2" points="37.3,51 37.8,51.5 37.5,51.5 37.3,51.3 			"/>
			<polygon class="st2" points="37.3,50.8 38,51.5 37.8,51.5 37.3,51 			"/>
			<polygon class="st2" points="37.3,50.6 38.2,51.5 38,51.5 37.3,50.8 			"/>
			<polygon class="st2" points="37.3,50.3 38.5,51.5 38.2,51.5 37.3,50.6 			"/>
			<polygon class="st2" points="37.3,50.1 38.7,51.5 38.5,51.5 37.3,50.3 			"/>
			<polygon class="st2" points="37.3,49.9 39,51.5 38.7,51.5 37.3,50.1 			"/>
			<polygon class="st2" points="37.3,49.6 39.2,51.5 39,51.5 37.3,49.9 			"/>
			<polygon class="st2" points="37.3,49.4 39.4,51.5 39.2,51.5 37.3,49.6 			"/>
			<polygon class="st2" points="37.3,49.1 39.7,51.5 39.4,51.5 37.3,49.4 			"/>
			<polygon class="st2" points="37.3,48.9 39.9,51.5 39.7,51.5 37.3,49.1 			"/>
			<polygon class="st2" points="37.3,48.7 40.1,51.5 39.9,51.5 37.3,48.9 			"/>
			<polygon class="st2" points="37.3,48.4 40.4,51.5 40.1,51.5 37.3,48.7 			"/>
			<polygon class="st2" points="37.3,48.2 40.6,51.5 40.4,51.5 37.3,48.4 			"/>
			<polygon class="st2" points="37.3,48 40.8,51.5 40.6,51.5 37.3,48.2 			"/>
			<polygon class="st2" points="37.3,47.7 41.1,51.5 40.8,51.5 37.3,48 			"/>
			<polygon class="st2" points="37.3,47.5 41.3,51.5 41.1,51.5 37.3,47.7 			"/>
			<polygon class="st2" points="37.3,47.2 41.6,51.5 41.3,51.5 37.3,47.5 			"/>
			<polygon class="st2" points="37.3,47 41.8,51.5 41.6,51.5 37.3,47.2 			"/>
			<polygon class="st2" points="37.3,46.8 42,51.5 41.8,51.5 37.3,47 			"/>
			<polygon class="st2" points="37.3,46.5 42.3,51.5 42,51.5 37.3,46.8 			"/>
			<polygon class="st2" points="37.3,46.3 42.5,51.5 42.3,51.5 37.3,46.5 			"/>
			<polygon class="st2" points="37.3,46.1 42.7,51.5 42.5,51.5 37.3,46.3 			"/>
			<polygon class="st2" points="37.3,45.8 43,51.5 42.7,51.5 37.3,46.1 			"/>
			<polygon class="st2" points="37.3,45.6 43.2,51.5 43,51.5 37.3,45.8 			"/>
			<polygon class="st2" points="37.3,45.3 43.5,51.5 43.2,51.5 37.3,45.6 			"/>
			<polygon class="st2" points="37.3,45.1 43.7,51.5 43.5,51.5 37.3,45.3 			"/>
			<polygon class="st2" points="37.3,44.9 43.9,51.5 43.7,51.5 37.3,45.1 			"/>
			<polygon class="st2" points="37.3,44.6 44.2,51.5 43.9,51.5 37.3,44.9 			"/>
			<polygon class="st2" points="37.3,44.4 44.4,51.5 44.2,51.5 37.3,44.6 			"/>
			<polygon class="st2" points="37.3,44.2 44.6,51.5 44.4,51.5 37.3,44.4 			"/>
			<polygon class="st2" points="37.3,43.9 44.9,51.5 44.6,51.5 37.3,44.2 			"/>
			<polygon class="st2" points="37.3,43.7 45.1,51.5 44.9,51.5 37.3,43.9 			"/>
			<polygon class="st2" points="37.3,43.4 45.3,51.5 45.2,51.5 45.1,51.5 37.3,43.7 			"/>
			<polygon class="st2" points="37.3,43.2 45.4,51.3 45.3,51.5 37.3,43.4 			"/>
			<polygon class="st2" points="37.3,43 45.5,51.2 45.4,51.3 37.3,43.2 			"/>
			<polygon class="st2" points="37.3,42.7 45.7,51.1 45.5,51.2 37.3,43 			"/>
			<polygon class="st2" points="37.3,42.5 45.8,51 45.7,51.1 37.3,42.7 			"/>
			<polygon class="st2" points="37.3,42.3 45.9,50.9 45.8,51 37.3,42.5 			"/>
			<polygon class="st2" points="37.3,42 46,50.7 45.9,50.9 37.3,42.3 			"/>
			<polygon class="st2" points="37.3,41.8 46.1,50.6 46,50.7 37.3,42 			"/>
			<polygon class="st2" points="37.3,41.5 46.2,50.5 46.1,50.6 37.3,41.8 			"/>
			<polygon class="st2" points="37.3,41.3 46.4,50.4 46.2,50.5 37.3,41.5 			"/>
			<polygon class="st2" points="37.3,41.1 46.5,50.3 46.4,50.4 37.3,41.3 			"/>
			<polygon class="st2" points="37.3,40.8 46.6,50.1 46.6,50.2 46.5,50.3 37.3,41.1 			"/>
			<polygon class="st2" points="37.3,40.6 46.6,49.9 46.6,50.1 37.3,40.8 			"/>
			<polygon class="st2" points="37.3,40.4 46.6,49.6 46.6,49.9 37.3,40.6 			"/>
			<polygon class="st2" points="37.3,40.1 46.6,49.4 46.6,49.6 37.3,40.4 			"/>
			<polygon class="st2" points="37.3,39.9 46.6,49.2 46.6,49.4 37.3,40.1 			"/>
			<polygon class="st2" points="37.3,39.7 46.6,48.9 46.6,49.2 37.3,39.9 			"/>
			<polygon class="st2" points="37.3,39.4 46.6,48.7 46.6,48.9 37.3,39.7 			"/>
			<polygon class="st2" points="37.3,39.2 46.6,48.5 46.6,48.7 37.3,39.4 			"/>
			<polygon class="st2" points="37.3,39 46.6,48.3 46.6,48.5 37.3,39.2 			"/>
			<polygon class="st2" points="37.3,38.7 46.6,48 46.6,48.3 37.3,39 			"/>
			<polygon class="st2" points="37.3,38.5 46.6,47.8 46.6,48 37.3,38.7 			"/>
			<polygon class="st2" points="37.3,38.3 46.6,47.6 46.6,47.8 37.3,38.5 			"/>
			<polygon class="st2" points="37.3,38.1 46.6,47.3 46.6,47.6 37.3,38.3 			"/>
			<polygon class="st2" points="37.3,37.8 46.6,47.1 46.6,47.3 37.3,38.1 			"/>
			<polygon class="st2" points="37.3,37.6 46.6,46.9 46.6,47.1 37.3,37.8 			"/>
			<polygon class="st2" points="37.3,37.4 46.6,46.7 46.6,46.9 37.3,37.6 			"/>
			<polygon class="st2" points="37.3,37.1 46.6,46.4 46.6,46.7 37.3,37.4 			"/>
			<polygon class="st2" points="37.3,36.9 46.6,46.2 46.6,46.4 37.3,37.1 			"/>
			<polygon class="st2" points="37.3,36.7 46.6,46 46.6,46.2 37.3,36.9 			"/>
			<polygon class="st2" points="37.3,36.5 46.6,45.7 46.6,46 37.3,36.7 			"/>
			<polygon class="st2" points="37.3,36.2 46.6,45.5 46.6,45.7 37.3,36.5 			"/>
			<polygon class="st2" points="37.3,36 46.6,45.3 46.6,45.5 37.3,36.2 			"/>
			<polygon class="st2" points="37.3,35.8 46.6,45 46.6,45.3 37.3,36 			"/>
			<polygon class="st2" points="37.3,35.5 46.6,44.8 46.6,45 37.3,35.8 			"/>
			<polygon class="st2" points="37.3,35.3 46.6,44.6 46.6,44.8 37.3,35.5 			"/>
			<polygon class="st2" points="37.3,35.1 46.6,44.4 46.6,44.6 37.3,35.3 			"/>
			<polygon class="st2" points="37.3,34.9 46.6,44.1 46.6,44.4 37.3,35.1 			"/>
			<polygon class="st2" points="37.3,34.6 46.6,43.9 46.6,44.1 37.3,34.9 			"/>
			<polygon class="st2" points="37.3,34.4 46.6,43.7 46.6,43.9 37.3,34.6 			"/>
			<polygon class="st2" points="37.3,34.2 46.6,43.4 46.6,43.7 37.3,34.4 			"/>
			<polygon class="st2" points="37.3,33.9 46.6,43.2 46.6,43.4 37.3,34.2 			"/>
			<polygon class="st2" points="37.3,33.7 46.6,43 46.6,43.2 37.3,33.9 			"/>
			<polygon class="st2" points="37.3,33.5 46.6,42.8 46.6,43 37.3,33.7 			"/>
			<polygon class="st2" points="37.3,33.3 46.6,42.5 46.6,42.8 37.3,33.5 			"/>
			<polygon class="st2" points="37.3,33 46.6,42.3 46.6,42.5 37.3,33.3 			"/>
			<polygon class="st2" points="37.5,33 46.6,42.1 46.6,42.3 37.3,33 37.3,33 			"/>
			<polygon class="st2" points="37.7,33 46.6,41.8 46.6,42.1 37.5,33 			"/>
			<polygon class="st2" points="37.9,33 46.6,41.6 46.6,41.8 37.7,33 			"/>
			<polygon class="st2" points="38.1,33 46.6,41.4 46.6,41.6 37.9,33 			"/>
			<polygon class="st2" points="38.4,33 46.6,41.2 46.6,41.4 38.1,33 			"/>
			<polygon class="st2" points="38.6,33 46.6,40.9 46.6,41.2 38.4,33 			"/>
			<polygon class="st2" points="38.8,33 46.6,40.7 46.6,40.9 38.6,33 			"/>
			<polygon class="st2" points="39.1,33 46.6,40.5 46.6,40.7 38.8,33 			"/>
			<polygon class="st2" points="39.3,33 46.6,40.2 46.6,40.5 39.1,33 			"/>
			<polygon class="st2" points="39.5,33 46.6,40 46.6,40.2 39.3,33 			"/>
			<polygon class="st2" points="39.8,33 46.6,39.8 46.6,40 39.5,33 			"/>
			<polygon class="st2" points="40,33 46.6,39.6 46.6,39.8 39.8,33 			"/>
			<polygon class="st2" points="40.2,33 46.6,39.3 46.6,39.6 40,33 			"/>
			<polygon class="st2" points="40.4,33 46.6,39.1 46.6,39.3 40.2,33 			"/>
			<polygon class="st2" points="40.7,33 46.6,38.9 46.6,39.1 40.4,33 			"/>
			<polygon class="st2" points="40.9,33 46.6,38.6 46.6,38.9 40.7,33 			"/>
			<polygon class="st2" points="41.1,33 46.6,38.4 46.6,38.6 40.9,33 			"/>
			<polygon class="st2" points="46.6,38.4 41.1,33 46.6,33 			"/>
		</g>
	</g>
	<g>
		<g>
			<defs>
				<path id="SVGID_7_" d="M43.9,26.3h2.7c0-5.1-4.2-9.3-9.3-9.3v2.7C40.9,19.7,43.9,22.7,43.9,26.3z"/>
			</defs>
			<use xlink:href="#SVGID_7_"  style="overflow:visible;fill:#FFFFFF;"/>
			<clipPath id="SVGID_8_">
				<use xlink:href="#SVGID_7_"  style="overflow:visible;"/>
			</clipPath>
			<polygon class="st3" points="37.3,19.7 43.9,26.3 37.3,26.3 			"/>
			<polygon class="st3" points="37.3,19.7 43.9,26.3 43.9,26.3 37.3,19.7 			"/>
			<polygon class="st3" points="37.3,19.6 44,26.3 43.9,26.3 37.3,19.7 			"/>
			<polygon class="st3" points="37.3,19.5 44.1,26.3 44,26.3 37.3,19.6 			"/>
			<polygon class="st3" points="37.3,19.5 44.1,26.3 44.1,26.3 37.3,19.5 			"/>
			<polygon class="st3" points="37.3,19.4 44.2,26.3 44.1,26.3 37.3,19.5 			"/>
			<polygon class="st3" points="37.3,19.3 44.3,26.3 44.2,26.3 37.3,19.4 			"/>
			<polygon class="st3" points="37.3,19.3 44.3,26.3 44.3,26.3 37.3,19.3 			"/>
			<polygon class="st3" points="37.3,19.2 44.4,26.3 44.3,26.3 37.3,19.3 			"/>
			<polygon class="st3" points="37.3,19.1 44.5,26.3 44.4,26.3 37.3,19.2 			"/>
			<polygon class="st3" points="37.3,19.1 44.6,26.3 44.5,26.3 37.3,19.1 			"/>
			<polygon class="st3" points="37.3,19 44.6,26.3 44.6,26.3 37.3,19.1 			"/>
			<polygon class="st3" points="37.3,18.9 44.7,26.3 44.6,26.3 37.3,19 			"/>
			<polygon class="st3" points="37.3,18.8 44.8,26.3 44.7,26.3 37.3,18.9 			"/>
			<polygon class="st3" points="37.3,18.8 44.8,26.3 44.8,26.3 37.3,18.8 			"/>
			<polygon class="st3" points="37.3,18.7 44.9,26.3 44.8,26.3 37.3,18.8 			"/>
			<polygon class="st3" points="37.3,18.6 45,26.3 44.9,26.3 37.3,18.7 			"/>
			<polygon class="st3" points="37.3,18.6 45,26.3 45,26.3 37.3,18.6 			"/>
			<polygon class="st3" points="37.3,18.5 45.1,26.3 45,26.3 37.3,18.6 			"/>
			<polygon class="st3" points="37.3,18.4 45.2,26.3 45.1,26.3 37.3,18.5 			"/>
			<polygon class="st3" points="37.3,18.4 45.2,26.3 45.2,26.3 37.3,18.4 			"/>
			<polygon class="st3" points="37.3,18.3 45.3,26.3 45.2,26.3 37.3,18.4 			"/>
			<polygon class="st3" points="37.3,18.2 45.4,26.3 45.3,26.3 37.3,18.3 			"/>
			<polygon class="st3" points="37.3,18.2 45.4,26.3 45.4,26.3 37.3,18.2 			"/>
			<polygon class="st3" points="37.3,18.1 45.5,26.3 45.4,26.3 37.3,18.2 			"/>
			<polygon class="st3" points="37.3,18 45.6,26.3 45.5,26.3 37.3,18.1 			"/>
			<polygon class="st3" points="37.3,17.9 45.7,26.3 45.6,26.3 37.3,18 			"/>
			<polygon class="st3" points="37.3,17.9 45.7,26.3 45.7,26.3 37.3,17.9 			"/>
			<polygon class="st3" points="37.3,17.8 45.8,26.3 45.7,26.3 37.3,17.9 			"/>
			<polygon class="st3" points="37.3,17.7 45.9,26.3 45.8,26.3 37.3,17.8 			"/>
			<polygon class="st3" points="37.3,17.7 45.9,26.3 45.9,26.3 37.3,17.7 			"/>
			<polygon class="st3" points="37.3,17.6 46,26.3 45.9,26.3 37.3,17.7 			"/>
			<polygon class="st3" points="37.3,17.5 46.1,26.3 46,26.3 37.3,17.6 			"/>
			<polygon class="st3" points="37.3,17.5 46.1,26.3 46.1,26.3 37.3,17.5 			"/>
			<polygon class="st3" points="37.3,17.4 46.2,26.3 46.1,26.3 37.3,17.5 			"/>
			<polygon class="st3" points="37.3,17.3 46.3,26.3 46.2,26.3 37.3,17.4 			"/>
			<polygon class="st3" points="37.3,17.3 46.3,26.3 46.3,26.3 37.3,17.3 			"/>
			<polygon class="st3" points="37.3,17.2 46.4,26.3 46.3,26.3 37.3,17.3 			"/>
			<polygon class="st3" points="37.3,17.1 46.5,26.3 46.4,26.3 37.3,17.2 			"/>
			<polygon class="st3" points="37.3,17.1 46.5,26.3 46.5,26.3 46.5,26.3 37.3,17.1 37.3,17.1 			"/>
			<polygon class="st3" points="37.3,17.1 46.5,26.3 46.5,26.3 37.3,17.1 			"/>
			<polygon class="st3" points="37.4,17.1 46.5,26.2 46.5,26.3 37.3,17.1 			"/>
			<polygon class="st3" points="37.5,17.1 46.5,26.1 46.5,26.2 37.4,17.1 			"/>
			<polygon class="st3" points="37.6,17.1 46.5,26 46.5,26.1 37.5,17.1 			"/>
			<polygon class="st3" points="37.6,17.1 46.5,26 46.5,26 37.6,17.1 			"/>
			<polygon class="st3" points="37.7,17.1 46.5,25.9 46.5,26 37.6,17.1 			"/>
			<polygon class="st3" points="37.8,17.1 46.5,25.8 46.5,25.9 37.7,17.1 			"/>
			<polygon class="st3" points="37.8,17.1 46.5,25.8 46.5,25.8 37.8,17.1 			"/>
			<polygon class="st3" points="37.9,17.1 46.5,25.7 46.5,25.8 37.8,17.1 			"/>
			<polygon class="st3" points="38,17.1 46.5,25.6 46.5,25.7 37.9,17.1 			"/>
			<polygon class="st3" points="38,17.1 46.5,25.6 46.5,25.6 38,17.1 			"/>
			<polygon class="st3" points="38.1,17.1 46.5,25.5 46.5,25.6 38,17.1 			"/>
			<polygon class="st3" points="38.2,17.1 46.5,25.4 46.5,25.5 38.1,17.1 			"/>
			<polygon class="st3" points="38.2,17.1 46.5,25.4 46.5,25.4 38.2,17.1 			"/>
			<polygon class="st3" points="38.3,17.1 46.5,25.3 46.5,25.4 38.2,17.1 			"/>
			<polygon class="st3" points="38.4,17.1 46.5,25.2 46.5,25.3 38.3,17.1 			"/>
			<polygon class="st3" points="38.4,17.1 46.5,25.2 46.5,25.2 38.4,17.1 			"/>
			<polygon class="st3" points="38.5,17.1 46.5,25.1 46.5,25.2 38.4,17.1 			"/>
			<polygon class="st3" points="38.6,17.1 46.5,25 46.5,25.1 38.5,17.1 			"/>
			<polygon class="st3" points="38.6,17.1 46.5,25 46.5,25 38.6,17.1 			"/>
			<polygon class="st3" points="38.7,17.1 46.5,24.9 46.5,25 38.6,17.1 			"/>
			<polygon class="st3" points="38.8,17.1 46.5,24.8 46.5,24.9 38.7,17.1 			"/>
			<polygon class="st3" points="38.8,17.1 46.5,24.8 46.5,24.8 38.8,17.1 			"/>
			<polygon class="st3" points="38.9,17.1 46.5,24.7 46.5,24.8 38.8,17.1 			"/>
			<polygon class="st3" points="39,17.1 46.5,24.6 46.5,24.7 38.9,17.1 			"/>
			<polygon class="st3" points="39,17.1 46.5,24.6 46.5,24.6 39,17.1 			"/>
			<polygon class="st3" points="39.1,17.1 46.5,24.5 46.5,24.6 39,17.1 			"/>
			<polygon class="st3" points="39.2,17.1 46.5,24.4 46.5,24.5 39.1,17.1 			"/>
			<polygon class="st3" points="39.2,17.1 46.5,24.4 46.5,24.4 39.2,17.1 			"/>
			<polygon class="st3" points="39.3,17.1 46.5,24.3 46.5,24.4 39.2,17.1 			"/>
			<polygon class="st3" points="39.4,17.1 46.5,24.2 46.5,24.3 39.3,17.1 			"/>
			<polygon class="st3" points="39.4,17.1 46.5,24.2 46.5,24.2 39.4,17.1 			"/>
			<polygon class="st3" points="39.5,17.1 46.5,24.1 46.5,24.2 39.4,17.1 			"/>
			<polygon class="st3" points="39.6,17.1 46.5,24 46.5,24.1 39.5,17.1 			"/>
			<polygon class="st3" points="39.6,17.1 46.5,24 46.5,24 39.6,17.1 			"/>
			<polygon class="st3" points="39.7,17.1 46.5,23.9 46.5,24 39.6,17.1 			"/>
			<polygon class="st3" points="39.8,17.1 46.5,23.8 46.5,23.9 39.7,17.1 			"/>
			<polygon class="st3" points="39.8,17.1 46.5,23.8 46.5,23.8 39.8,17.1 			"/>
			<polygon class="st3" points="39.9,17.1 46.5,23.7 46.5,23.8 39.8,17.1 			"/>
			<polygon class="st3" points="40,17.1 46.5,23.6 46.5,23.7 39.9,17.1 			"/>
			<polygon class="st3" points="40,17.1 46.5,23.6 46.5,23.6 40,17.1 			"/>
			<polygon class="st3" points="40.1,17.1 46.5,23.5 46.5,23.6 40,17.1 			"/>
			<polygon class="st3" points="40.2,17.1 46.5,23.4 46.5,23.5 40.1,17.1 			"/>
			<polygon class="st3" points="40.2,17.1 46.5,23.4 46.5,23.4 40.2,17.1 			"/>
			<polygon class="st3" points="40.3,17.1 46.5,23.3 46.5,23.4 40.2,17.1 			"/>
			<polygon class="st3" points="40.4,17.1 46.5,23.2 46.5,23.3 40.3,17.1 			"/>
			<polygon class="st3" points="40.4,17.1 46.5,23.2 46.5,23.2 40.4,17.1 			"/>
			<polygon class="st3" points="40.5,17.1 46.5,23.1 46.5,23.2 40.4,17.1 			"/>
			<polygon class="st3" points="40.6,17.1 46.5,23 46.5,23.1 40.5,17.1 			"/>
			<polygon class="st3" points="40.6,17.1 46.5,23 46.5,23 40.6,17.1 			"/>
			<polygon class="st3" points="40.7,17.1 46.5,22.9 46.5,23 40.6,17.1 			"/>
			<polygon class="st3" points="40.8,17.1 46.5,22.8 46.5,22.9 40.7,17.1 			"/>
			<polygon class="st3" points="40.8,17.1 46.5,22.8 46.5,22.8 40.8,17.1 			"/>
			<polygon class="st3" points="40.9,17.1 46.5,22.7 46.5,22.8 40.8,17.1 			"/>
			<polygon class="st3" points="41,17.1 46.5,22.6 46.5,22.7 40.9,17.1 			"/>
			<polygon class="st3" points="41,17.1 46.5,22.6 46.5,22.6 41,17.1 			"/>
			<polygon class="st3" points="41.1,17.1 46.5,22.5 46.5,22.6 41,17.1 			"/>
			<polygon class="st3" points="46.5,22.5 41.1,17.1 46.5,17.1 			"/>
		</g>
	</g>
	<g>
		<g>
			<defs>
				<polygon id="SVGID_9_" points="16.9,11.7 16.9,17.2 19.6,17.2 19.6,14.4 32.7,14.4 32.7,53.7 31,53.7 31,56.4 37.2,56.4 
					37.2,53.7 35.4,53.7 35.4,14.4 48.6,14.4 48.6,17.2 51.3,17.2 51.3,11.7 				"/>
			</defs>
			<use xlink:href="#SVGID_9_"  style="overflow:visible;fill:#FFFFFF;"/>
			<clipPath id="SVGID_10_">
				<use xlink:href="#SVGID_9_"  style="overflow:visible;"/>
			</clipPath>
			<polygon class="st4" points="16.9,42.4 31,56.4 16.9,56.4 			"/>
			<polygon class="st4" points="16.9,41.7 31.6,56.4 31,56.4 16.9,42.4 			"/>
			<polygon class="st4" points="16.9,41 32.3,56.4 31.6,56.4 16.9,41.7 			"/>
			<polygon class="st4" points="16.9,40.3 33,56.4 32.3,56.4 16.9,41 			"/>
			<polygon class="st4" points="16.9,39.6 33.7,56.4 33,56.4 16.9,40.3 			"/>
			<polygon class="st4" points="16.9,38.9 34.4,56.4 33.7,56.4 16.9,39.6 			"/>
			<polygon class="st4" points="16.9,38.2 35.1,56.4 34.4,56.4 16.9,38.9 			"/>
			<polygon class="st4" points="16.9,37.5 35.8,56.4 35.1,56.4 16.9,38.2 			"/>
			<polygon class="st4" points="16.9,36.8 36.5,56.4 35.8,56.4 16.9,37.5 			"/>
			<polygon class="st4" points="16.9,36.1 37.2,56.4 36.5,56.4 16.9,36.8 			"/>
			<polygon class="st4" points="16.9,35.5 37.9,56.4 37.2,56.4 16.9,36.1 			"/>
			<polygon class="st4" points="16.9,34.8 38.5,56.4 37.9,56.4 16.9,35.5 			"/>
			<polygon class="st4" points="16.9,34.1 39.2,56.4 38.5,56.4 16.9,34.8 			"/>
			<polygon class="st4" points="16.9,33.4 39.9,56.4 39.2,56.4 16.9,34.1 			"/>
			<polygon class="st4" points="16.9,32.7 40.3,56.1 40,56.4 39.9,56.4 16.9,33.4 			"/>
			<polygon class="st4" points="16.9,32 40.7,55.8 40.3,56.1 16.9,32.7 			"/>
			<polygon class="st4" points="16.9,31.3 41,55.5 40.7,55.8 16.9,32 			"/>
			<polygon class="st4" points="16.9,30.6 41.4,55.1 41,55.5 16.9,31.3 			"/>
			<polygon class="st4" points="16.9,29.9 41.7,54.8 41.4,55.1 16.9,30.6 			"/>
			<polygon class="st4" points="16.9,29.3 42.1,54.4 41.7,54.8 16.9,29.9 			"/>
			<polygon class="st4" points="16.9,28.6 42.4,54.1 42.1,54.4 16.9,29.3 			"/>
			<polygon class="st4" points="16.9,27.9 42.7,53.7 42.4,54.1 16.9,28.6 			"/>
			<polygon class="st4" points="16.9,27.2 43.1,53.4 42.7,53.7 16.9,27.9 			"/>
			<polygon class="st4" points="16.9,26.5 43.4,53 43.1,53.4 16.9,27.2 			"/>
			<polygon class="st4" points="16.9,25.8 43.8,52.7 43.4,53 16.9,26.5 			"/>
			<polygon class="st4" points="16.9,25.1 44.1,52.4 43.8,52.7 16.9,25.8 			"/>
			<polygon class="st4" points="16.9,24.4 44.5,52 44.1,52.4 16.9,25.1 			"/>
			<polygon class="st4" points="16.9,23.7 44.8,51.7 44.5,52 16.9,24.4 			"/>
			<polygon class="st4" points="16.9,23 45.2,51.3 44.8,51.7 16.9,23.7 			"/>
			<polygon class="st4" points="16.9,22.4 45.5,51 45.2,51.3 16.9,23 			"/>
			<polygon class="st4" points="16.9,21.7 45.8,50.6 45.5,51 16.9,22.4 			"/>
			<polygon class="st4" points="16.9,21 46.2,50.3 45.8,50.6 16.9,21.7 			"/>
			<polygon class="st4" points="16.9,20.3 46.5,49.9 46.2,50.3 16.9,21 			"/>
			<polygon class="st4" points="16.9,19.6 46.9,49.6 46.5,49.9 16.9,20.3 			"/>
			<polygon class="st4" points="16.9,18.9 47.2,49.3 46.9,49.6 16.9,19.6 			"/>
			<polygon class="st4" points="16.9,18.2 47.6,48.9 47.2,49.3 16.9,18.9 			"/>
			<polygon class="st4" points="16.9,17.5 47.9,48.6 47.6,48.9 16.9,18.2 			"/>
			<polygon class="st4" points="16.9,16.8 48.3,48.2 47.9,48.6 16.9,17.5 			"/>
			<polygon class="st4" points="16.9,16.1 48.6,47.9 48.3,48.2 16.9,16.8 			"/>
			<polygon class="st4" points="16.9,15.5 49,47.5 48.6,47.9 16.9,16.1 			"/>
			<polygon class="st4" points="16.9,14.8 49.3,47.2 49,47.5 16.9,15.5 			"/>
			<polygon class="st4" points="16.9,14.1 49.6,46.8 49.3,47.2 16.9,14.8 			"/>
			<polygon class="st4" points="16.9,13.4 50,46.5 49.6,46.8 16.9,14.1 			"/>
			<polygon class="st4" points="16.9,12.7 50.3,46.1 50,46.5 16.9,13.4 			"/>
			<polygon class="st4" points="16.9,12 50.7,45.8 50.3,46.1 16.9,12.7 			"/>
			<polygon class="st4" points="17.3,11.7 51,45.5 50.7,45.8 16.9,12 16.9,11.7 			"/>
			<polygon class="st4" points="18,11.7 51.3,45 51.3,45.2 51,45.5 17.3,11.7 			"/>
			<polygon class="st4" points="18.7,11.7 51.3,44.4 51.3,45 18,11.7 			"/>
			<polygon class="st4" points="19.4,11.7 51.3,43.7 51.3,44.4 18.7,11.7 			"/>
			<polygon class="st4" points="20,11.7 51.3,43 51.3,43.7 19.4,11.7 			"/>
			<polygon class="st4" points="20.7,11.7 51.3,42.3 51.3,43 20,11.7 			"/>
			<polygon class="st4" points="21.4,11.7 51.3,41.7 51.3,42.3 20.7,11.7 			"/>
			<polygon class="st4" points="22,11.7 51.3,41 51.3,41.7 21.4,11.7 			"/>
			<polygon class="st4" points="22.7,11.7 51.3,40.3 51.3,41 22,11.7 			"/>
			<polygon class="st4" points="23.3,11.7 51.3,39.7 51.3,40.3 22.7,11.7 			"/>
			<polygon class="st4" points="24,11.7 51.3,39 51.3,39.7 23.3,11.7 			"/>
			<polygon class="st4" points="24.7,11.7 51.3,38.3 51.3,39 24,11.7 			"/>
			<polygon class="st4" points="25.3,11.7 51.3,37.7 51.3,38.3 24.7,11.7 			"/>
			<polygon class="st4" points="26,11.7 51.3,37 51.3,37.7 25.3,11.7 			"/>
			<polygon class="st4" points="26.7,11.7 51.3,36.3 51.3,37 26,11.7 			"/>
			<polygon class="st4" points="27.3,11.7 51.3,35.7 51.3,36.3 26.7,11.7 			"/>
			<polygon class="st4" points="28,11.7 51.3,35 51.3,35.7 27.3,11.7 			"/>
			<polygon class="st4" points="28.7,11.7 51.3,34.4 51.3,35 28,11.7 			"/>
			<polygon class="st4" points="29.3,11.7 51.3,33.7 51.3,34.4 28.7,11.7 			"/>
			<polygon class="st4" points="30,11.7 51.3,33 51.3,33.7 29.3,11.7 			"/>
			<polygon class="st4" points="30.7,11.7 51.3,32.4 51.3,33 30,11.7 			"/>
			<polygon class="st4" points="31.3,11.7 51.3,31.7 51.3,32.4 30.7,11.7 			"/>
			<polygon class="st4" points="32,11.7 51.3,31 51.3,31.7 31.3,11.7 			"/>
			<polygon class="st4" points="32.7,11.7 51.3,30.4 51.3,31 32,11.7 			"/>
			<polygon class="st4" points="33.3,11.7 51.3,29.7 51.3,30.4 32.7,11.7 			"/>
			<polygon class="st4" points="34,11.7 51.3,29 51.3,29.7 33.3,11.7 			"/>
			<polygon class="st4" points="34.7,11.7 51.3,28.4 51.3,29 34,11.7 			"/>
			<polygon class="st4" points="35.3,11.7 51.3,27.7 51.3,28.4 34.7,11.7 			"/>
			<polygon class="st4" points="36,11.7 51.3,27 51.3,27.7 35.3,11.7 			"/>
			<polygon class="st4" points="36.7,11.7 51.3,26.4 51.3,27 36,11.7 			"/>
			<polygon class="st4" points="37.3,11.7 51.3,25.7 51.3,26.4 36.7,11.7 			"/>
			<polygon class="st4" points="38,11.7 51.3,25 51.3,25.7 37.3,11.7 			"/>
			<polygon class="st4" points="38.7,11.7 51.3,24.4 51.3,25 38,11.7 			"/>
			<polygon class="st4" points="39.3,11.7 51.3,23.7 51.3,24.4 38.7,11.7 			"/>
			<polygon class="st4" points="40,11.7 51.3,23 51.3,23.7 39.3,11.7 			"/>
			<polygon class="st4" points="40.6,11.7 51.3,22.4 51.3,23 40,11.7 			"/>
			<polygon class="st4" points="41.3,11.7 51.3,21.7 51.3,22.4 40.6,11.7 			"/>
			<polygon class="st4" points="42,11.7 51.3,21 51.3,21.7 41.3,11.7 			"/>
			<polygon class="st4" points="42.6,11.7 51.3,20.4 51.3,21 42,11.7 			"/>
			<polygon class="st4" points="43.3,11.7 51.3,19.7 51.3,20.4 42.6,11.7 			"/>
			<polygon class="st4" points="44,11.7 51.3,19 51.3,19.7 43.3,11.7 			"/>
			<polygon class="st4" points="44.6,11.7 51.3,18.4 51.3,19 44,11.7 			"/>
			<polygon class="st4" points="45.3,11.7 51.3,17.7 51.3,18.4 44.6,11.7 			"/>
			<polygon class="st4" points="46,11.7 51.3,17.1 51.3,17.7 45.3,11.7 			"/>
			<polygon class="st4" points="46.6,11.7 51.3,16.4 51.3,17.1 46,11.7 			"/>
			<polygon class="st4" points="47.3,11.7 51.3,15.7 51.3,16.4 46.6,11.7 			"/>
			<polygon class="st4" points="48,11.7 51.3,15.1 51.3,15.7 47.3,11.7 			"/>
			<polygon class="st4" points="48.6,11.7 51.3,14.4 51.3,15.1 48,11.7 			"/>
			<polygon class="st4" points="49.3,11.7 51.3,13.7 51.3,14.4 48.6,11.7 			"/>
			<polygon class="st4" points="50,11.7 51.3,13.1 51.3,13.7 49.3,11.7 			"/>
			<polygon class="st4" points="50.6,11.7 51.3,12.4 51.3,13.1 50,11.7 			"/>
			<polygon class="st4" points="51.3,11.7 51.3,11.7 51.3,12.4 50.6,11.7 			"/>
			<path class="st4" d="M51.3,11.7L51.3,11.7L51.3,11.7z"/>
		</g>
	</g>
</g>
<path class="st5" d="M1.1,1v65.9h65.9V1H1.1z"/>
</svg>
