<?xml version="1.0" encoding="utf-8"?>
<!-- Generator: Adobe Illustrator 24.0.0, SVG Export Plug-In . SVG Version: 6.00 Build 0)  -->
<svg version="1.1" id="Camada_1" xmlns="http://www.w3.org/2000/svg" xmlns:xlink="http://www.w3.org/1999/xlink" x="0px" y="0px"
	 viewBox="0 0 461.4 522.1" style="enable-background:new 0 0 461.4 522.1;" xml:space="preserve">
<style type="text/css">
	.st0{fill-rule:evenodd;clip-rule:evenodd;fill:#CD9794;stroke:#CD9794;stroke-width:10;stroke-miterlimit:10;}
</style>
<g>
	<path class="st0" d="M447.1,211.6H105.9l327.7-94.9c2.5-0.7,4.7-2.5,6-4.8s1.6-5.1,0.8-7.6l-17.1-59.2
		c-6.9-23.7-28.9-40.2-53.5-40.2c-5.2,0-10.4,0.7-15.4,2.2L46.7,96.2c-14.2,4.1-26,13.6-33.2,26.6c-7.2,13.1-8.9,28.1-4.8,42.3
		L25.5,223v238.3c0,30.7,25,55.7,55.6,55.7h120.2c5.5,0,10-4.5,10-10s-4.5-10-10-10H81.1c-19.6-0.1-35.6-16.1-35.6-35.8v-136h51.2
		l0,0l0,0H175l0,0l0,0h78.3l0,0l0,0h78.3l0,0l0,0h105.3v136.1c0,19.7-16,35.7-35.7,35.7H281.3c-5.5,0-10,4.5-10,10
		c0,5.5,4.5,10,10,10h120.2c30.7,0,55.7-25,55.7-55.7V221.6C457.1,216.1,452.6,211.6,447.1,211.6z M270.8,305.2l42.5-73.6h55.2
		L326,305.2H270.8z M192.4,305.2l42.5-73.6h55.3l-42.5,73.6H192.4z M114,305.2l42.5-73.6h55.3l-42.5,73.6H114z M151.2,175.7
		l-71.1-68.3l53.3-15.5c0.4,0.5,0.8,1.1,1.3,1.5l71.1,68.3l-53.3,15.5C152.2,176.7,151.7,176.2,151.2,175.7z M285.2,49.9l71.1,68.3
		L303,133.6c-0.4-0.5-0.8-1.1-1.3-1.5l-71.1-68.3l53.3-15.4C284.3,48.9,284.7,49.4,285.2,49.9z M210,71.7l71.1,68.3l-53.3,15.4
		c-0.4-0.5-0.8-1.1-1.3-1.5l-71.1-68.3l53.3-15.4C209,70.7,209.5,71.2,210,71.7z M359.9,26.3c3.2-0.9,6.5-1.4,9.8-1.4
		c15.8,0,29.9,10.6,34.3,25.7l14.4,49.6l-40.1,11.6c-0.4-0.5-0.8-1.1-1.3-1.5L305.9,42L359.9,26.3z M31,132.5
		c4.6-8.4,12.2-14.4,21.3-17.1l5.9-1.7c0.4,0.5,0.8,1.1,1.3,1.5l71.1,68.3l-88.3,25.6l-14.4-49.6C25.3,150.5,26.4,140.9,31,132.5z
		 M45.5,231.6h88L91,305.2H45.5V231.6z M349.1,305.2l42.5-73.6h45.5v73.6H349.1z"/>
	<path class="st0" d="M310.4,410c0-3.6-1.9-6.9-5-8.7l-87.9-50.7c-3.1-1.8-6.9-1.8-10,0s-5,5.1-5,8.7v101.4c0,3.6,1.9,6.9,5,8.7
		c1.5,0.9,3.3,1.3,5,1.3s3.5-0.4,5-1.3l87.9-50.7C308.5,416.9,310.4,413.6,310.4,410z M222.6,443.4v-66.8l57.9,33.4L222.6,443.4z"/>
	<path class="st0" d="M241.3,496.9c-5.5,0-10,4.5-10,10s4.5,10,10,10s10-4.5,10-10S246.8,496.9,241.3,496.9z"/>
</g>
</svg>
