<?xml version="1.0" encoding="utf-8"?>
<!-- Generator: Adobe Illustrator 24.0.0, SVG Export Plug-In . SVG Version: 6.00 Build 0)  -->
<svg version="1.1" id="Camada_1" xmlns="http://www.w3.org/2000/svg" xmlns:xlink="http://www.w3.org/1999/xlink" x="0px" y="0px"
	 viewBox="0 0 512.4 512" style="enable-background:new 0 0 512.4 512;" xml:space="preserve">
<style type="text/css">
	.st0{fill:#CD9794;}
</style>
<path class="st0" d="M235.8,347.3c3.9-3.9,3.9-10.2,0-14.1s-10.2-3.9-14.1,0c-3.9,3.9-3.9,10.2,0,14.1
	C225.6,351.2,231.9,351.2,235.8,347.3z"/>
<path class="st0" d="M188.4,110c0,60.6,49.3,110,110,110s110-49.3,110-110S359.1,0,298.4,0S188.4,49.3,188.4,110z M388.4,110
	c0,49.6-40.4,90-90,90s-90-40.4-90-90s40.4-90,90-90S388.4,60.4,388.4,110z"/>
<path class="st0" d="M115.7,509c3.9,3.9,10.2,3.9,14.1,0.1l48.5-47.8c8.2-8.2,10.7-20.4,7.1-31l10.4-10.1c5.6-5.4,13-8.4,20.8-8.4
	h132.9c23.6,0,45.9-9.1,62.8-25.5c0.7-0.7-5.3,6.4,90.7-108.3c14.2-16.8,12.1-42.1-4.8-56.4c-16.7-14.1-41.8-12.1-56.1,4.5l-59,60.6
	c-7.4-9.2-18.8-14.9-31.1-14.9H240.5c-15.9-6.6-32.7-10-50.1-10c-48.1,0-90.2,22.2-112.7,63.9c-9.5-1.8-19.5,1.1-26.7,8.3L3.4,381.8
	c-3.9,3.9-3.9,10.2,0,14.1L115.7,509z M190.4,281.9c15.3,0,30.1,3.1,44,9.2c1.3,0.6,2.6,0.8,4,0.8H352c10.8,0,20,8.8,20,20
	c0,11-9,20-20,20h-81.6c-5.5,0-10,4.5-10,10s4.5,10,10,10H352c22.1,0,40-17.9,40-40c0-1.8-0.1-3.5-0.4-5.2
	c57.1-58.7,65.1-66.9,65.5-67.3c7.1-8.4,19.8-9.5,28.2-2.4c8.4,7.1,9.5,19.8,2.3,28.2l-89.7,107.2c-13.1,12.6-30.3,19.5-48.5,19.5
	H216.6c-13,0-25.4,5-34.7,14l-8.5,8.2l-78.3-78.3C113.4,301.5,147.7,281.9,190.4,281.9z M65.1,348.3c3.3-3.3,8.4-3.9,12.4-1.4
	c1.7,1.1-3.2-3.5,86.6,86.2c4,4,3.8,10.4,0.1,14.1l-41.3,40.7l-98.2-99L65.1,348.3z"/>
<path class="st0" d="M286.4,50v11.7c-11.6,4.1-20,15.2-20,28.3c0,16.5,13.5,30,30,30c5.5,0,10,4.5,10,10s-4.5,10-10,10
	c-4.3,0-8.9-2.7-13-7.6c-3.6-4.2-9.9-4.8-14.1-1.2s-4.8,9.9-1.2,14.1c5.3,6.4,11.6,10.8,18.3,13V170c0,5.5,4.5,10,10,10
	s10-4.5,10-10v-11.7c11.6-4.1,20-15.2,20-28.3c0-16.5-13.5-30-30-30c-5.5,0-10-4.5-10-10s4.5-10,10-10c3.5,0,7.3,1.8,10.8,5.2
	c4,3.8,10.3,3.7,14.1-0.2c3.8-4,3.7-10.3-0.2-14.1c-5.1-4.9-10.2-7.7-14.7-9.2V50c0-5.5-4.5-10-10-10S286.4,44.5,286.4,50z"/>
</svg>
