<?xml version="1.0" encoding="utf-8"?>
<!-- Generator: Adobe Illustrator 24.0.0, SVG Export Plug-In . SVG Version: 6.00 Build 0)  -->
<svg version="1.1" id="Layer_1" xmlns="http://www.w3.org/2000/svg" xmlns:xlink="http://www.w3.org/1999/xlink" x="0px" y="0px"
	 viewBox="0 0 300.7 364.5" style="enable-background:new 0 0 300.7 364.5;" xml:space="preserve">
<style type="text/css">
	.st0{fill:#CD9794;}
	.st1{fill:#F4F4F4;stroke:#CD9794;stroke-width:12.0002;stroke-miterlimit:10.0001;}
</style>
<g>
	<path class="st0" d="M8,336h240c4.4,0,8-3.6,8-8V160c0-4.4-3.6-8-8-8h-8v-40C240,50.2,189.8,0,128,0S16,50.2,16,112v40H8
		c-4.4,0-8,3.6-8,8v168C0,332.4,3.6,336,8,336z M16,200h40v16H16V200z M16,264h40v16H16V264z M16,232h40v16H16V232z M32,112
		c0-52.9,43.1-96,96-96s96,43.1,96,96v40h-16v-40c0-44.1-35.9-80-80-80s-80,35.9-80,80v40H32V112z M192,152H64v-40
		c0-35.3,28.7-64,64-64s64,28.7,64,64V152z M240,168v152H16v-24h48c4.4,0,8-3.6,8-8v-32v-32v-32c0-4.4-3.6-8-8-8H16v-16H240z"/>
	<path class="st0" d="M96.1,287c-0.3,2.3,0.4,4.6,1.9,6.3c1.5,1.7,3.7,2.7,6,2.7h48c2.3,0,4.5-1,6-2.7s2.2-4,1.9-6.3l-5.6-45
		c3.7-5.3,5.7-11.6,5.7-18c0-17.6-14.4-32-32-32s-32,14.4-32,32c0,6.4,2,12.7,5.7,18L96.1,287z M128,208c8.8,0,16,7.2,16,16
		c0,4.9-2.2,8.4-4,10.5c-1.5,1.7-2.2,4-1.9,6.3L143,280h-29.9l4.9-39.2c0.3-2.3-0.4-4.6-1.9-6.3c-1.8-2.1-4-5.6-4-10.5
		C112,215.2,119.2,208,128,208L128,208z"/>
	<path d="M208,288h16v16h-16V288z"/>
	<ellipse class="st1" cx="243.5" cy="307.1" rx="51.5" ry="51.5"/>
	<path class="st0" d="M235.5,328.9c2,0,4.1-0.8,5.7-2.3l31-32l-9.3-9.3l-27.3,26.3l-11.3-10.3l-9.3,9.3l15,16
		C231.4,328.1,233.4,328.9,235.5,328.9z"/>
</g>
</svg>
