<?xml version="1.0" encoding="utf-8"?>
<!-- Generator: Adobe Illustrator 24.0.0, SVG Export Plug-In . SVG Version: 6.00 Build 0)  -->
<svg version="1.1" id="Camada_1" xmlns="http://www.w3.org/2000/svg" xmlns:xlink="http://www.w3.org/1999/xlink" x="0px" y="0px"
	 viewBox="0 0 469.1 411.7" style="enable-background:new 0 0 469.1 411.7;" xml:space="preserve">
<style type="text/css">
	.st0{fill:#9A999E;stroke:#9A999E;stroke-width:16;stroke-miterlimit:10;}
</style>
<path class="st0" d="M352.6,11.1c-2.9-2.8-7.1-3.7-10.9-2.1c-3.7,1.5-6.2,5.2-6.2,9.2v53.2c-53.9,2.1-80.9,24.5-85,28.2
	c-27.2,22.3-45.8,53.4-52.5,87.9c-3.4,16.7-4,33.8-1.8,50.7v0.1c0,0.1,0,0.3,0.1,0.4l2.1,12.2c0.7,4.1,3.9,7.3,8,8.1
	c4.1,0.8,8.2-1.1,10.4-4.7l6.4-10.6c19.5-32.5,43.8-54,72.3-63.9c12.8-4.5,26.4-6.5,40-5.9V229c0,4,2.4,7.7,6.2,9.2
	c3.7,1.5,8,0.7,10.9-2.2L458,130c3.9-3.9,3.9-10.2,0-14.1L352.6,11.1z M355.6,204.9V165c0-4.9-3.6-9.1-8.4-9.8
	c-8.5-1.4-31.3-3.6-58.2,5.9c-28.7,10.1-53.5,29.8-74,58.9c-0.1-9.6,0.8-19.1,2.7-28.5c6.1-30.7,21.5-56.4,45.8-76.5
	c0.2-0.2,0.4-0.4,0.6-0.6c0.7-0.6,26-23.5,81.4-23.1h0.1c5.5,0,10-4.5,10-10V42.2l81.4,80.9L355.6,204.9z"/>
<path class="st0" d="M424.4,302c-5.5,0-10,4.5-10,10v42.2c0,16.5-13.4,29.9-29.9,29.9H57.9c-16.5,0-29.9-13.4-29.9-29.9V116.5
	c0-16.5,13.4-29.9,29.9-29.9h69c5.5,0,10-4.5,10-10s-4.5-10-10-10h-69C30.3,66.6,8,88.9,8,116.5v237.7c0,27.5,22.3,49.9,49.9,49.9
	h326.6c27.5,0,49.9-22.3,49.9-49.9V312C434.4,306.5,429.9,302,424.4,302z"/>
</svg>
