<?xml version="1.0" encoding="utf-8"?>
<!-- Generator: Adobe Illustrator 24.0.0, SVG Export Plug-In . SVG Version: 6.00 Build 0)  -->
<svg version="1.1" id="Capa_1" xmlns="http://www.w3.org/2000/svg" xmlns:xlink="http://www.w3.org/1999/xlink" x="0px" y="0px"
	 viewBox="0 0 345 512" style="enable-background:new 0 0 345 512;" xml:space="preserve">
<style type="text/css">
	.st0{fill:#CD9794;}
</style>
<g>
	<g>
		<path class="st0" d="M337.5,414.8c-4.1,0-7.5,3.4-7.5,7.5v70.5c0,2.3-1.9,4.1-4.1,4.1h-40.3V349.3c0-4.1-3.4-7.5-7.5-7.5
			s-7.5,3.4-7.5,7.5V497h-81.2l23.5-25.9c2.6-2.8,3.8-6.9,3.2-10.8c0-0.1,0-0.2,0-0.2l-22.4-132.5l6-9.1c3.3,2.4,5.9,4.7,10.7,4.7
			c4.9,0,9.5-2.7,11.8-7.3l0,0l23.6-47.4l53.9,20.9c1.9,0.8,30.3,13.6,30.3,47.2v50.7c0,4.1,3.4,7.5,7.5,7.5s7.5-3.4,7.5-7.5v-50.7
			c0-44.3-38-60.5-39.6-61.1c0,0-0.1,0-0.1-0.1l-89.7-34.7v-21c14.2-11.1,24.1-27.5,26.6-46.2c7.1-0.5,13.7-3.2,19.1-7.8
			c7-6,11.1-14.8,11.1-24.1c0-7.7-2.8-15.1-7.7-20.8V93c0-51.3-41.7-93-93-93s-93,41.7-93,93v28.5c-5,5.7-7.7,12.7-7.7,20.1
			c0,9.3,4,18.1,11.1,24.1c5.4,4.6,12,7.3,19.1,7.8c2.5,19.1,12.7,36.1,28.1,47.3v19.9l-89.6,34.7c0,0-0.1,0-0.1,0.1
			C38,276.2,0,292.3,0,336.6v156.2c0,10.6,8.6,19.1,19.1,19.1h71.3c4.1,0,7.5-3.4,7.5-7.5s-3.4-7.5-7.5-7.5H74.3V349.3
			c0-4.1-3.4-7.5-7.5-7.5s-7.5,3.4-7.5,7.5V497H19c-2.3,0-4.1-1.9-4.1-4.1V336.6c0-33.8,28.5-46.5,30.2-47.2l53.8-20.9l23.7,47.4
			c2.3,4.5,6.9,7.3,11.8,7.3c4.8,0,7.3-2.2,10.7-4.7l6,9.1l-22.4,132.5c0,0.1,0,0.1,0,0.2c-0.5,3.9,0.7,8,3.2,10.8l23.5,25.9h-30
			c-4.1,0-7.5,3.4-7.5,7.5s3.4,7.5,7.5,7.5h200.4c10.6,0,19.1-8.6,19.1-19.1v-70.5C345,418.2,341.6,414.8,337.5,414.8z M231.8,263.1
			l-22,44.2c-0.5-0.4-12.2-8.7-26.5-18.8c6.2-7.7-1.1,1.3,27.2-33.6L231.8,263.1z M187.4,309.8l-5.7,8.6H163l-5.7-8.6l15.1-10.7
			L187.4,309.8z M144.1,243.1v-14c9.1,3.7,18.9,5.4,28.4,5.4c9.8,0,19.5-2.1,28.1-5.8v14.6L172.4,278L144.1,243.1z M257.3,141.5
			c0,4.9-2.1,9.6-5.8,12.8c-2.5,2.1-5.4,3.5-8.7,4v-33.5C251.4,126.2,257.3,133.4,257.3,141.5z M100.4,158.3
			c-8.7-1.4-14.5-8.6-14.5-16.7c0-8,6.6-14.5,14.5-16.4V158.3z M100.8,109.9c-2.4,0.3-5.1,0.9-7.2,1.6V93c0-43,35-78,78-78
			s78,35,78,78v18c-2.2-0.7-4.4-1.1-6.8-1.3c0-7.2,0.1-5.8-23.6-31.3c-4.4-4.7-11.6-5.7-17-2.1c-26.1,17.1-58,25.6-87.4,23.5
			C108.3,99.4,102.4,103.6,100.8,109.9z M115.4,164.2v-46.8v-2.5c32.4,1.9,66.3-7.7,93.7-25.3c10.9,11.7,16.7,17.8,18.6,20.1
			c0,5.9,0,47.7,0,54.4c0,30.4-24.8,55.3-55.3,55.3C138.3,219.5,115.4,192.9,115.4,164.2z M135,307.3l-22-44.2l21.3-8.2l27.2,33.6
			C147.7,298.3,136.3,306.4,135,307.3z M143.6,461.7l21.7-128.3h14.1l21.7,128.3l-28.7,31.6L143.6,461.7z"/>
	</g>
</g>
</svg>
