<?xml version="1.0" encoding="utf-8"?>
<!-- Generator: Adobe Illustrator 24.0.0, SVG Export Plug-In . SVG Version: 6.00 Build 0)  -->
<svg version="1.1" id="Capa_1" xmlns="http://www.w3.org/2000/svg" xmlns:xlink="http://www.w3.org/1999/xlink" x="0px" y="0px"
	 viewBox="0 0 480 488" style="enable-background:new 0 0 480 488;" xml:space="preserve">
<style type="text/css">
	.st0{fill:#CD9794;}
</style>
<g>
	<g>
		<path class="st0" d="M446.4,168.6C457.2,158.4,464,144,464,128c0-30.9-25.1-56-56-56s-56,25.1-56,56c0,19.6,10.2,36.9,25.5,46.9
			C367,182.1,360,194.3,360,208v56h-32v-40c0-28.6-21.6-52.3-49.4-55.6c10.7-10.2,17.4-24.5,17.4-40.4c0-30.9-25.1-56-56-56
			s-56,25.1-56,56c0,15.9,6.7,30.2,17.4,40.4c-27.8,3.3-49.4,26.9-49.4,55.6v40h-32v-56c0-13.7-7-25.9-17.5-33.1
			c15.4-10,25.5-27.3,25.5-46.9c0-30.9-25.1-56-56-56s-56,25.1-56,56c0,16,6.8,30.4,17.6,40.6C14.6,171.7,0,188.1,0,208v120
			c0,19.3,13.8,35.5,32,39.2V488h16V368h72v112c0,4.4,3.6,8,8,8h48c4.4,0,8-3.6,8-8V352h48v120h-32v16h80v-16h-32V352h48v128
			c0,4.4,3.6,8,8,8h48c4.4,0,8-3.6,8-8V368h72v120h16V367.2c18.2-3.7,32-19.9,32-39.2V208C480,188.1,465.4,171.7,446.4,168.6z
			 M368,128c0-22.1,17.9-40,40-40s40,17.9,40,40s-17.9,40-40,40S368,150.1,368,128z M200,128c0-22.1,17.9-40,40-40s40,17.9,40,40
			s-17.9,40-40,40S200,150.1,200,128z M252.5,184L240,217.2L227.5,184H252.5z M168,224c0-22.1,17.9-40,40-40h2.5l22.1,58.8
			c1.2,3.1,4.2,5.2,7.5,5.2s6.3-2.1,7.5-5.2l22-58.8h2.5c22.1,0,40,17.9,40,40v40h-32c-4.4,0-8,3.6-8,8v32h-64v-32c0-4.4-3.6-8-8-8
			h-32v-40H168z M32,128c0-22.1,17.9-40,40-40s40,17.9,40,40s-17.9,40-40,40S32,150.1,32,128z M168,472h-32V360c0-4.4-3.6-8-8-8H40
			c-13.2,0-24-10.8-24-24V208c0-13.2,10.8-24,24-24h40c13.2,0,24,10.8,24,24v64c0,4.4,3.6,8,8,8h80v24H80v-72H64v80c0,4.4,3.6,8,8,8
			h72c13.2,0,24,10.8,24,24V472z M296.9,336H183.1c-1.2-5.9-3.6-11.4-7.1-16h24h80h24C300.5,324.6,298.1,330.1,296.9,336z M464,328
			c0,13.2-10.8,24-24,24h-88c-4.4,0-8,3.6-8,8v112h-32V344c0-13.2,10.8-24,24-24h72c4.4,0,8-3.6,8-8v-80h-16v72H288v-24h80
			c4.4,0,8-3.6,8-8v-64c0-13.2,10.8-24,24-24h40c13.2,0,24,10.8,24,24V328z"/>
	</g>
</g>
<g>
	<g>
		<rect x="232" y="264" class="st0" width="16" height="16"/>
	</g>
</g>
<g>
	<g>
		<path class="st0" d="M200,0H88c-4.4,0-8,3.6-8,8v40c0,4.4,3.6,8,8,8h32v16c0,3,1.7,5.8,4.4,7.2c1.1,0.6,2.4,0.8,3.6,0.8
			c1.7,0,3.4-0.5,4.8-1.6L162.7,56H200c4.4,0,8-3.6,8-8V8C208,3.6,204.4,0,200,0z M192,40h-32c-1.7,0-3.4,0.6-4.8,1.6L136,56v-8
			c0-4.4-3.6-8-8-8H96V16h96V40z"/>
	</g>
</g>
</svg>
