<?xml version="1.0" encoding="utf-8"?>
<!-- Generator: Adobe Illustrator 24.0.0, SVG Export Plug-In . SVG Version: 6.00 Build 0)  -->
<svg version="1.1" id="Capa_1" xmlns="http://www.w3.org/2000/svg" xmlns:xlink="http://www.w3.org/1999/xlink" x="0px" y="0px"
	 viewBox="0 0 40 60" style="enable-background:new 0 0 40 60;" xml:space="preserve">
<style type="text/css">
	.st0{fill:#CD9794;}
</style>
<g>
	<path class="st0" d="M37,4H25l1.8-2.4c0.3-0.4,0.2-1.1-0.2-1.4S25.5,0,25.2,0.4L22.5,4h-4.9l-1.7-3.4c-0.2-0.5-0.8-0.7-1.3-0.4
		c-0.5,0.2-0.7,0.8-0.4,1.3L15.4,4H3C1.3,4,0,5.3,0,7v50c0,1.7,1.3,3,3,3h34c1.7,0,3-1.3,3-3V7C40,5.3,38.7,4,37,4z M38,57
		c0,0.6-0.4,1-1,1H3c-0.6,0-1-0.4-1-1V7c0-0.6,0.4-1,1-1h13.4l1,2C16.5,8.7,16,9.8,16,11c0,2.2,1.8,4,4,4s4-1.8,4-4s-1.8-4-4-4
		c-0.3,0-0.6,0-0.8,0.1L18.6,6H37c0.6,0,1,0.4,1,1V57z M18.3,9.9l0.8,1.5c0.2,0.4,0.5,0.6,0.9,0.6c0.1,0,0.3,0,0.4-0.1
		c0.5-0.2,0.7-0.8,0.4-1.3L20.1,9c1,0.1,1.9,0.9,1.9,2s-0.9,2-2,2s-2-0.9-2-2C18,10.6,18.1,10.2,18.3,9.9z"/>
	<path class="st0" d="M30,41H10c-0.6,0-1,0.4-1,1s0.4,1,1,1h20c0.6,0,1-0.4,1-1S30.6,41,30,41z"/>
	<path class="st0" d="M30,46H10c-0.6,0-1,0.4-1,1s0.4,1,1,1h20c0.6,0,1-0.4,1-1S30.6,46,30,46z"/>
	<path class="st0" d="M30,51H10c-0.6,0-1,0.4-1,1s0.4,1,1,1h20c0.6,0,1-0.4,1-1S30.6,51,30,51z"/>
	<path class="st0" d="M26,37h4V17H10v20h4H26z M16,35c0-2.2,1.8-4,4-4s4,1.8,4,4H16z M17,26c0-1.7,1.3-3,3-3s3,1.3,3,3s-1.3,3-3,3
		S17,27.7,17,26z M12,35V19h16v16h-2c0-2.2-1.2-4.1-2.9-5.1C24.3,29,25,27.6,25,26c0-2.8-2.2-5-5-5s-5,2.2-5,5c0,1.6,0.7,3,1.9,3.9
		C15.2,31,14,32.9,14,35H12z"/>
</g>
</svg>
