<?xml version="1.0" encoding="utf-8"?>
<!-- Generator: Adobe Illustrator 24.0.0, SVG Export Plug-In . SVG Version: 6.00 Build 0)  -->
<svg version="1.1" id="Capa_1" xmlns="http://www.w3.org/2000/svg" xmlns:xlink="http://www.w3.org/1999/xlink" x="0px" y="0px"
	 viewBox="0 0 368 480" style="enable-background:new 0 0 368 480;" xml:space="preserve">
<style type="text/css">
	.st0{fill:#CD9794;}
</style>
<g>
	<g>
		<path class="st0" d="M360,32L360,32H256V8c0-4.4-3.6-8-8-8l0,0H120c-4.4,0-8,3.6-8,8l0,0v24H8c-4.4,0-8,3.6-8,8l0,0v432
			c0,4.4,3.6,8,8,8l0,0h352c4.4,0,8-3.6,8-8l0,0V40C368,35.6,364.4,32,360,32z M128,16h112v48H128V16z M352,464H16V48h96v24
			c0,4.4,3.6,8,8,8l0,0h128c4.4,0,8-3.6,8-8l0,0V48h96V464z"/>
	</g>
</g>
<g>
	<g>
		<rect x="32" y="368" class="st0" width="176" height="16"/>
	</g>
</g>
<g>
	<g>
		<rect x="224" y="368" class="st0" width="112" height="16"/>
	</g>
</g>
<g>
	<g>
		<rect x="32" y="400" class="st0" width="304" height="16"/>
	</g>
</g>
<g>
	<g>
		<rect x="32" y="432" class="st0" width="128" height="16"/>
	</g>
</g>
<g>
	<g>
		<rect x="176" y="432" class="st0" width="160" height="16"/>
	</g>
</g>
<g>
	<g>
		<path class="st0" d="M88,232L88,232H40c-4.4,0-8,3.6-8,8l0,0v104c0,4.4,3.6,8,8,8l0,0h48c4.4,0,8-3.6,8-8l0,0V240
			C96,235.6,92.4,232,88,232z M80,336H48v-88h32V336z"/>
	</g>
</g>
<g>
	<g>
		<path class="st0" d="M168,200L168,200h-48c-4.4,0-8,3.6-8,8l0,0v136c0,4.4,3.6,8,8,8l0,0h48c4.4,0,8-3.6,8-8l0,0V208
			C176,203.6,172.4,200,168,200z M160,336h-32V216h32V336z"/>
	</g>
</g>
<g>
	<g>
		<path class="st0" d="M248,168L248,168h-48c-4.4,0-8,3.6-8,8l0,0v168c0,4.4,3.6,8,8,8l0,0h48c4.4,0,8-3.6,8-8l0,0V176
			C256,171.6,252.4,168,248,168z M240,336h-32V184h32V336z"/>
	</g>
</g>
<g>
	<g>
		<path class="st0" d="M328,136L328,136h-48c-4.4,0-8,3.6-8,8l0,0v200c0,4.4,3.6,8,8,8l0,0h48c4.4,0,8-3.6,8-8l0,0V144
			C336,139.6,332.4,136,328,136z M320,336h-32V152h32V336z"/>
	</g>
</g>
<g>
	<g>
		<path class="st0" d="M326.4,80.2l-80,16c-1,0.2-2,0.6-2.9,1.2l-70,46.7H104c-1.5,0-3,0.4-4.2,1.2l-64,40l8.5,13.6l62.1-38.8H176
			c1.6,0,3.1-0.5,4.4-1.3l70.7-47.1L329.5,96L326.4,80.2z"/>
	</g>
</g>
</svg>
