<?xml version="1.0" encoding="utf-8"?>
<!-- Generator: Adobe Illustrator 24.0.0, SVG Export Plug-In . SVG Version: 6.00 Build 0)  -->
<svg version="1.1" id="Camada_1" xmlns="http://www.w3.org/2000/svg" xmlns:xlink="http://www.w3.org/1999/xlink" x="0px" y="0px"
	 viewBox="0 0 750 750" style="enable-background:new 0 0 750 750;" xml:space="preserve">
<style type="text/css">
	.st0{fill:#CD9794;}
</style>
<g id="surface1">
	<path class="st0" d="M50,750h600c27.6,0,50-22.4,50-50v-37.5c0-6.9-5.6-12.5-12.5-12.5h-25V450h-25v200h-25V450h-25v200H427.9
		c-13.3,0-25.5,7.5-31.4,19.4c-1.7,3.4-5.2,5.6-9.1,5.6h-72.1c-3.8,0-7.3-2.1-9-5.6c-5.9-11.9-18.1-19.5-31.4-19.4H112.5V337.5
		c0-6.9,5.6-12.5,12.5-12.5h225v-25H125c-20.7,0-37.5,16.8-37.5,37.5V650h-25V312.5c0-20.7,16.8-37.5,37.5-37.5h250v-25H100
		c-34.5,0-62.5,28-62.5,62.5V650h-25C5.6,650,0,655.6,0,662.5V700C0,727.6,22.4,750,50,750z M25,675h250c3.8,0,7.3,2.1,9.1,5.6
		c5.9,11.9,18.1,19.5,31.4,19.4h72.1c13.3,0,25.5-7.5,31.4-19.4c1.7-3.4,5.2-5.6,9-5.6H675v25c0,13.8-11.2,25-25,25H50
		c-13.8,0-25-11.2-25-25V675z"/>
	<path class="st0" d="M162.5,462.5v100c0,6.9,5.6,12.5,12.5,12.5h350c6.9,0,12.5-5.6,12.5-12.5v-100c0-6.9-5.6-12.5-12.5-12.5H175
		C168.1,450,162.5,455.6,162.5,462.5z M187.5,475h325v75h-325V475z"/>
	<path class="st0" d="M212.5,500h25v25h-25V500z"/>
	<path class="st0" d="M262.5,500h25v25h-25V500z"/>
	<path class="st0" d="M312.5,500h25v25h-25V500z"/>
	<path class="st0" d="M362.5,500h25v25h-25V500z"/>
	<path class="st0" d="M712.5,188v-38c0-82.8-67.2-150-150-150s-150,67.2-150,150v38c-21.3,2.3-37.4,20.2-37.5,41.6V383
		c0,23.2,18.8,42,42,42H708c23.2,0,42-18.8,42-42V229.5C749.9,208.1,733.8,190.2,712.5,188z M437.5,150c0-69,56-125,125-125
		s125,56,125,125v37.5h-25V150c0-55.2-44.8-100-100-100s-100,44.8-100,100v37.5h-25V150z M487.5,187.5V150c0-41.4,33.6-75,75-75
		s75,33.6,75,75v37.5H487.5z M725,383c0,9.4-7.6,17-17,17H417c-9.4,0-17-7.6-17-17V229.5c0-9.4,7.6-17,17-17H708c9.4,0,17,7.6,17,17
		V383z"/>
	<path class="st0" d="M562.5,262.5c-18.2,0-33.8,13.1-36.9,31.1c-3.1,18,7.2,35.6,24.4,41.6v27.3h25v-27.3
		c17.2-6.1,27.5-23.6,24.4-41.6C596.3,275.6,580.7,262.5,562.5,262.5z M562.5,312.5c-6.9,0-12.5-5.6-12.5-12.5s5.6-12.5,12.5-12.5
		S575,293.1,575,300S569.4,312.5,562.5,312.5z"/>
	<path class="st0" d="M225,200h25v25h-25V200z"/>
	<path class="st0" d="M225,150h25v25h-25V150z"/>
	<path class="st0" d="M225,100h25v25h-25V100z"/>
	<path class="st0" d="M225,50h25v25h-25V50z"/>
	<path class="st0" d="M275,50h25v25h-25V50z"/>
	<path class="st0" d="M325,50h25v25h-25V50z"/>
	<path class="st0" d="M375,50h25v25h-25V50z"/>
</g>
</svg>
