<?xml version="1.0" encoding="utf-8"?>
<!-- Generator: Adobe Illustrator 24.0.0, SVG Export Plug-In . SVG Version: 6.00 Build 0)  -->
<svg version="1.1" id="Layer_1" xmlns="http://www.w3.org/2000/svg" xmlns:xlink="http://www.w3.org/1999/xlink" x="0px" y="0px"
	 viewBox="0 0 310.2 512" style="enable-background:new 0 0 310.2 512;" xml:space="preserve">
<style type="text/css">
	.st0{fill:#CD9794;}
</style>
<path class="st0" d="M220.4,216c-1.3-9.9-4.8-19.2-10.1-27.2l45.4-64.8c17.2-24.5,19.2-55,5.4-81.5C247.3,16,221.2,0,191.2,0h-71.7
	c-0.1,0-0.2,0-0.2,0c-0.1,0-0.1,0-0.2,0c-29.9,0-56,15.9-69.9,42.4s-11.8,57,5.4,81.5l45.4,64.8c-5.3,8.1-8.8,17.3-10.1,27.3
	c-47,21.9-82.1,66.8-88.8,122c-11,91.1,62.4,174,154.1,174c44.1,0,86.6-18.9,116.3-52.4c6.4-7.2-4.8-17.2-11.2-9.9
	c-30.6,34.6-76.2,51.9-122,46.3C61.6,486.7,6.8,416.7,16.1,339.9c9.3-76.7,79.3-131.5,156.1-122.2c76.7,9.3,131.5,79.3,122.2,156.1
	c-2.1,17.6-8.2,36.1-17.1,52.3c-4.7,8.5,8.5,15.7,13.1,7.2c9.8-17.8,16.5-38.3,18.8-57.7C317.5,307.1,279.8,243.6,220.4,216
	L220.4,216z M62.6,49.3c10.3-19.8,29.1-32.3,51-34.1l33.7,111.3l-10.6,35c-10.1,3-19.2,8.3-26.7,15.4l-43.1-61.5
	C53,95.5,51.4,70.8,62.6,49.3z M155.2,100.6l-26-85.6h51.9L155.2,100.6z M200.3,176.8c-11.8-11.2-27.7-18-45.1-18
	c-0.7,0-1.3,0-2,0.1l43.5-143.7c21.9,1.8,40.7,14.3,51,34.1c11.2,21.5,9.6,46.2-4.3,66L200.3,176.8z M155.2,173.8
	c22.7,0,42,15,48.4,35.6c-9.5-3.1-19.4-5.4-29.7-6.6c-23.4-2.8-46.2-0.3-67.2,6.6C113.2,188.8,132.5,173.8,155.2,173.8z"/>
<path class="st0" d="M155.2,250.5c-58.6,0-106.4,47.7-106.4,106.4s47.7,106.3,106.4,106.3s106.4-47.7,106.4-106.4
	S213.8,250.5,155.2,250.5L155.2,250.5z M155.2,448.2c-50.4,0-91.3-41-91.3-91.3s41-91.3,91.3-91.3s91.3,41,91.3,91.3
	S205.5,448.2,155.2,448.2L155.2,448.2z"/>
<path class="st0" d="M206.6,341.8l-23-12.6c-0.4-0.2-0.6-0.5-0.8-0.8l-12.6-23c-3-5.5-8.8-8.9-15-8.9c-6.3,0-12,3.4-15,8.9l-12.6,23
	c-0.2,0.4-0.5,0.6-0.8,0.8l-23,12.6c-5.5,3-8.9,8.8-8.9,15c0,6.3,3.4,12,8.9,15l23,12.6c0.4,0.2,0.6,0.5,0.8,0.8l12.6,23
	c3,5.5,8.7,8.9,15,8.9c6.3,0,12-3.4,15-8.9l12.6-23c0.2-0.4,0.5-0.6,0.8-0.8l23-12.6c5.5-3,8.9-8.8,8.9-15
	C215.5,350.6,212,344.8,206.6,341.8L206.6,341.8z M199.4,358.7l-23,12.6c-2.9,1.6-5.2,3.9-6.8,6.8l-12.6,23
	c-0.5,0.9-1.3,1.1-1.8,1.1s-1.3-0.2-1.8-1.1l-12.6-23c-1.6-2.9-3.9-5.2-6.8-6.8l-23-12.6c-0.9-0.5-1.1-1.3-1.1-1.8
	c0-0.6,0.2-1.3,1.1-1.8l23-12.6c2.9-1.6,5.2-3.9,6.8-6.8l12.6-23c0.5-0.9,1.3-1.1,1.8-1.1s1.3,0.2,1.8,1.1l12.6,23
	c1.6,2.9,3.9,5.2,6.8,6.8l23,12.6c0.9,0.5,1.1,1.3,1.1,1.8C200.4,357.4,200.3,358.2,199.4,358.7L199.4,358.7z"/>
</svg>
